<svg xmlns="http://www.w3.org/2000/svg" viewBox="0 0 3885.46 3885.67"><defs><style>.cls-1{fill:#fff;}</style></defs><g id="Layer_2" data-name="Layer 2"><g id="Layer_1_copy" data-name="Layer 1 copy"><path class="cls-1" d="M248,1183.71c-6.15-2.22-8.42-8.69-5.07-14.3C303.59,1068,313.82,1043,328,1007c28.69-72.81,15.73-94,50.07-168.79a495.74,495.74,0,0,1,93.87-137.54c37.25-38.38,121.51-88.79,140.81-109.41,181.49-193.81,166-227.18,375.5-339.85,81.36-43.76,175.15-83.16,206.34-97.15a3.6,3.6,0,0,1,5,3.86,155.74,155.74,0,0,0-1.71,27.65c.62,34.55,1.57,57.11-9.39,71.9-125.17,168.8-81.36,237.57-103.26,278.2-15.09,28-22,70-31.3,68.77-9.78-1.29-13.71-47.07-12.51-81.27,2-58,18.91-84.16,6.26-131.29-2.64-9.8-8.27-30-18.78-31.26-10.87-1.3-53.26,26.3-72,51.43-18.44,24.69-27,27.08-56.32,56.26-35.31,35.09-69.67,45-85.68,65-69.37,86.54-53,107.87-155.21,185.94C606.5,760,499,856.05,487.59,878.82c-10.39,20.67-25.36,91.36-6.26,100,19.31,8.77,39.3-50.62,78.23-78.15,0,0,99.71-77.68,240.94-134.41,17.84-7.16,41.39-7.74,65.71,3.13,17.6,7.85,17,19,43.81,43.76,33.07,30.54,44.66,23.39,56.33,43.76,12.76,22.27,31.42,167.44,34.42,209.44,12.52,175,0,118.78-21.91,328.22-5.92,56.63-28.41,91.56-56.32,137.54-27.44,45.21-74.79,123.21-162.72,162.54-49.36,22.08-81,18.31-125.16,56.27-30.65,26.33-29.88,40.55-56.33,56.27-36.47,21.68-70.83,14.17-143.94,6.25-95.69-10.37-143.53-15.55-194-12.51-68.91,4.16-103.67,18-162.71,0-51.79-15.81-63-51.31-65.07-57.75-5.68-17.63,5.37-18.87,21.26-54.78,3.07-6.93,27.67-62.53,37.55-93.78,27.87-88.17,28.16-78.14,40.68-165.67,2.21-15.43,23.68-25.76,33.13-29.6a3.77,3.77,0,0,1,5.16,2.92c2.07,13.64,7.58,57,5.52,120.46-1.86,57-8.94,86.52-12.52,112.53-6.63,48.21-12.8,68.3-16.15,76.31a3.26,3.26,0,0,0,3.29,4.5c21.89-1.8,98.43-8.63,125.51-18.29,87.62-31.26,118.91,25,316-90.65,93.23-54.69,122-9.38,244.08-200.06,17.25-26.95,33.65-32.39,43.81-56.27,14.5-34.08,4.61-51.4,6.25-112.53,1.71-63.17,12.81-64.84,12.52-125-.25-52.24-3.51-75.22-21.9-96.91-33.55-39.54-95-35.43-103.26-34.38-41.13,5.18-42.27,23.79-93.88,37.51-59,15.67-122,34.38-187.75,106.28-34.15,37.36-75.13,47.46-100.13,56.27C341.79,1192.6,356.27,1222.9,248,1183.71Z"/><path class="cls-1" d="M2049,44.21C2017.44-4.92,1936.53-.28,1923.87.44c-56.15,3.22-86.21,1-147.06,16.36-68,17.21-81.45,5.13-155.42,12.6-129.59,13.09-90,60.1-247.83,92.41-23.38,4.79-69,12-92.41,29.41-51,37.91-43.66,153.34-48.82,196.2-19.86,164.92-44.54,87.39-75.1,318.84C1137.05,819.07,1122.88,807,1116.55,982c-9.39,259.45-87,438.61-84.49,522,.41,13.94-73,174.56-87.62,193.81-25.09,33.15-147.07,71.9-147.07,71.9s32.4,5.24,93.88-6.26c108.25-20.24,139.44-34.82,187.75-43.76,140.17-25.93,272.23-9.38,272.23-9.38s-56.35-48.46-112.65-62.51c-125.16-31.26-71.52-67.93-50.06-150,31.53-120.7,8.83-220.66,31.29-362.6,9.72-61.42,51.78-150.06,81.36-250.08,67-226.65,43.2-244.5,118.91-318.84,38.13-37.45,196.65-82.9,250.33-118.78,77.66-51.91,38.89-57.12,156.46-112.53C1940.78,281.22,2016,240,2049,150.49,2054.92,134.54,2074,83,2049,44.21ZM1801.83,234.89c-21.1,19.75-84.18,29.58-118.91,43.76-40.2,16.41-42.4,45.34-62.58,62.52-79.06,67.31-239.9,103.36-269.11,68.77-18.18-21.54,25.17-111.91,75.1-156.3,85.58-76.07,130.61-7.18,281.63-87.52,35-18.62,131.79-42.21,143.94-31.26C1863.64,145.45,1827.24,211.1,1801.83,234.89Z"/><path class="cls-1" d="M2537.18,1544.64c-71.63-78.32-40.13-168.24-56.32-368.86-20.69-256.26-81.17-222.07-75.1-393.86,9.07-257,93.87-468.89,93.87-468.89,21.13-52.8,48.54-114.87,33.44-156.49C2497.84,59.45,2300.64,1.74,2188.86,69c-35,21.08-79.73,105.94-152.34,225.26-36.85,60.55-62.16,106.67-68.84,118.78-102.62,186.09-152,224.51-219,343.85-37.52,66.77-82.68,128.89-85,195.46-2.18,63.58-37.18,127.4-59,210.91-56.63,216.81-84.94,325.22-81.36,387.61,3,52.61,14.2,138.16-31.29,168.8-37.9,25.52-96.15.15-100.14,12.5-3.46,10.74,37.48,39.48,87.62,56.27,89.67,30,117.81-8.63,194,18.76,65.87,23.68,81.39,65.71,125.16,56.26,33.35-7.19,60.94-39.49,56.33-50-2.17-5-9.86-1.38-35.94-8.29-19-5-35.44-12.39-43.83-16.18,0,0-7.22-3.27-14.11-6.79-92.87-47.51-118.9-112.53-118.9-112.53-15.65-39.07-6.93-75.54,0-106.28,47.26-209.82,64.18-113.08,78.22-309.47,3.94-55.07,34.56-95.61,35.49-138.13,2-92,28.5-156.18,55.26-177.59,18.22-14.57,22.72-19.32,33.74-66.41,10.19-43.57,37.49-59.12,50.75-74.25,24-27.37,148.73-77,184.25-69.75,56,11.5,171.76,55.12,193.47,78.45,43.63,46.88-9.93,105.62,16.55,216.36,23.46,98.12,45.64,102.81,81.36,181.31,46.94,103.15,2.28,202.29,18.77,300.08,14.87,88.13,25.47,121.88,3.13,146.92-11.76,13.19-29,2.91-87.61,12.5-30,4.92-87.71,17.8-87.62,31.26s58.54,23.29,68.84,25c87.43,14.59,150.58-1.53,269.11-25,133.06-26.36,167.42-28.62,169-43.76C2727.8,1622.87,2610.47,1624.78,2537.18,1544.64ZM2236.78,444.32c-51,100.69-8.6,187.05-50.06,206.31-5.24,2.43-8.92,2.45-81.36-18.75-79-23.14-88-27-93.87-37.51-17.85-31.52,14.74-81.1,31.29-106.29,43.93-66.83,77-58.56,118.9-118.78,44.61-64.15,35.54-114.53,62.59-118.78s67,41.9,68.84,87.52C2294.8,379.28,2264.3,390,2236.78,444.32Z"/><path class="cls-1" d="M2679.07,179.5c-27.41,16.73-31.74,52.26-37.55,100-5.4,44.34-1.1,70.06,0,100,2.71,74.14-21.17,160-60.53,289.83-4.81,15.85-15,48.57-18.77,93.77a432.15,432.15,0,0,0,0,68.77c1.77,22.51,9.7,100.19,56.32,193.81,33.11,66.49,54.53,78.37,62.58,131.29,3.54,23.26,2.36,40.52,0,75-5.5,80.52-21.56,94.74-18.77,150,1.74,34.6,4,79.29,31.29,93.78,31.89,16.93,59.45,146.92,137.68,0,29.66-55.69,37.31-78.19,87.62-125,27.08-25.21,26.38-11.43,68.84-43.76,43.67-33.24,47.67-50.3,137.68-150,17.08-18.93,20.62-22.39,25-31.26,23.05-46.28-31-136.87-50.07-181.3-20.49-47.77-38.4-92.42-40.68-71.9-6.26,56.27,37.55,112.53,0,156.3-23.17,27-32.46,25-53.19,53.14-17.95,24.34-28.75,15.18-68.85,50-15.09,13.12-29,29.76-56.32,62.52-48.1,57.76-58.59,77.25-75.1,75-19.59-2.65-29.95-33.5-31.29-37.51-9-26.8,1.16-45.44,6.26-75,9.44-54.82-6.46-101.13-12.52-118.79-15.79-46-33.21-46.54-56.32-100-13.68-31.65-18.27-56.19-25-93.77-16-88.6-11.17-155.89-6.26-218.82,4.74-60.69,12.42-97.86,37.55-131.28,18.47-24.55,57.42-92,82.43-92.9,177.05-6.59,178.27,104.48,206.46,115.22,62.75,23.92,56,40.72,120.21,69.3,26.67,11.88,43.19,36.78,53.64,67,12.61,36.54,1.13,61.91-14.2,95.4-8.3,18.14,4.94,48.67,9.39,53.14,14.82,14.88-2.23,81.28,18.78,81.28,6.25,0,16.09-66.86,16.71-68.57,4.58-12.66,23.07-65.14,39.61-131.49,15.81-63.41,54.3-62.85,48.47-98.72-5.23-32.23-119.09-119-168.57-153.25-64-44.31-96.53-88.58-149.41-122.59-65-41.82-146.11-95.1-203-116.21C2733.4,175,2702.8,165,2679.07,179.5Z"/><path class="cls-1" d="M2856.36,1650.92c.68-52.26,54.19-78.76,112.65-137.54,30.89-31.06,56.06-70.72,106.39-150,76.58-120.69,60.9-136.12,137.68-268.83C3293.3,955.85,3312.3,969.42,3344.5,882c29.33-79.67,36.1-152.12,68.85-156.3,16.54-2.11,30.68,14.35,50.06,37.51,87.37,104.41,127.72,155.12,140.62,173.55,74.36,106.31,62.94,121.3,95,172.45,60.42,96.5,60.45,167.79,52.05,176.19-10.24,10.24-9.61-.57-33.27,17.62-21.91,16.84-27.66,32.53-43.81,56.27-24.19,35.53-67,82.2-81.36,75-12.54-6.28-1.75-52.92,6.26-87.53,6.14-26.57,9.23-39.9,18.77-56.26,19.21-32.94,38.68-33.75,50.07-56.27,16.88-33.39-99-110.15-165.21-190.42-45.67-55.32-55.53-103.56-75.1-100-5.9,1.07-21.49,112.91-32.83,150.76-24.2,80.82-95,146.23-112.65,162.55-28.52,26.36-54.08,43.06-50.06,62.52,3.88,18.81,33.07,28.74,50.06,31.25,40,5.91,73.47-20.22,87.62-31.25,21.56-16.83,19.06-23.35,37.55-37.52,30.87-23.64,82-39.28,93.87-25,23.51,28.36-123.76,155.9-231.55,275.08-2.66,2.93-13.64,15.09-18.78,12.5-7.58-3.82.53-38.23,6.26-62.52,6.21-26.35,9.22-29.95,6.26-37.51-6.47-16.5-26-12.57-50.07-31.26-26.72-20.77-26.78-44.48-37.55-43.76-13.74.92-11.24,39.39-37.55,87.53-6.3,11.51-25.62,46.08-62.58,75-29.85,23.37-44.19,21.92-56.33,43.76-11.85,21.33-16.52,27.36-1.91,43.87,8.54,9.65,91.14,52.1,237.81,100,70.07,22.89,74,18.26,118.91,37.51,60.49,26,58.93,36.8,93.88,43.76,54.77,10.91,61.27,24.34,137,31.92,24.47,2.45,176.19-19.1,182.18-25.67,13.19-14.49-1.46-7.09-4.34-62.62-3.37-64.82,3.13-28.13,9.38-84.4,4.17-37.45,5-66.56,12.52-87.53,8.31-23.27,6-55.34,21.9-46.89,12.79,6.78,10.9,27.31,12.52,62.52.58,12.7,5.33,116.15,31.29,206.31,7.43,25.79,14.45,43.06,6.26,62.52-10.63,25.28-38.91,35.22-62.58,43.76-148.69,53.7-119.05,53.88-162.72,62.52-39.85,7.89-127.45,24.21-225.3-6.25-109.83-34.19-108.67-88.74-206.52-100-34.38-4-96.9-34.44-122-53.14-20.72-15.41-61-45.43-128.29-59.39-67.64-14-80.08-23.53-87.62-31.26C2866,1697.66,2856.06,1673.89,2856.36,1650.92Z"/><path class="cls-1" d="M1016.41,2163.57a328,328,0,0,0-37.55-125C951.72,1988,918.44,1958.31,910,1951c-20.73-18-65.55-56.88-125.16-62.52-47.77-4.52-76.78,15-118.91,31.26-86.38,33.34-161.45,27.35-269.11,18.75-99.49-7.94-243.71-37.31-275.36-43.76-47-9.57-105.21-22.51-118.91,0-8.5,14,5.74,32.39,18.77,68.77,18.05,50.37,15.56,84.37,18.78,131.29,7.46,108.87,36.35,152.13,62.58,318.84,27.33,173.71,7.27,156,35.92,249.48,14.87,48.5,223.73,435.74,270.74,469.48,33.9,24.33,66.28,37.26,100.13,81.27,30.48,39.63,50.07,62.52,53.2,65.65,45.4,45.35,40.38-100.19,50.06-125,8.32-21.34,66.69-151.12,75.1-212.56,15.95-116.41,48.17-101,109.52-315.72,22.45-78.56,33.46-130.28,81.36-181.3,38.15-40.63,56.08-34.36,87.62-75C1028.05,2290.34,1018.82,2189.8,1016.41,2163.57ZM797,2287.8c-33.64,34.42-147.42,147-156,207.12-16.89,117.71,2.33,117.4-18.78,175-46.94,128.16-61.61,145.57-65.71,153.17-25.36,47-3.16,161.12-20.47,172.66-18,12-159.08-190.86-164-204-24.07-64.17-83-96.84-87.77-196.86-4.42-93.16,14.82-127.26-6.26-212.56-8.77-35.49-13.51-35.31-50.06-125-55.5-136.23-87.68-216.91-62.59-237.57,6.83-5.62,16.91-6,56.33,6.25,108.48,33.71,135.07,68.59,206.52,87.53,27.62,7.31,78.32,20.75,137.69,6.25,73.43-17.95,101.59-64.35,150.2-50,24.31,7.17,161.51,70,162.94,92C880.2,2181,806.75,2277.79,797,2287.8Z"/><path class="cls-1" d="M1754.89,2007.27c-7.83-11.77-23.78-9.21-50.06-12.5-18.26-2.28-33.95-6.44-150.2-68.77-91.85-49.24-102-57.34-137.68-68.77-20.87-6.68-49.26-15.59-87.62-18.75-61.94-5.12-70.06,11.31-181.49,25-50.49,6.2-68.31,5.22-75.1,18.76-10.87,21.66,23.58,46.44,43.81,106.28,7,20.76,8.94,49.55,12.51,106.28,5.75,91.28,8.62,136.91,0,168.8-14.86,55-38.6,61.52-68.84,118.78-26.91,51-27.53,82.62-43.81,200.06-25.71,185.62-31.67,160.81-62.58,387.61-2.28,16.77-7.78,54.94-18.77,131.29-10.84,75.24-22.67,153.46-62.59,237.57-21.54,45.38-32.86,53.72-43.8,56.27-33.61,7.82-60.55-39.57-137.69-56.27-16.33-3.54-33-7-37.55,0-8.91,13.78,36.48,57.52,87.62,106.28,56.8,54.16,90.13,85.58,143.94,118.78,17.27,10.67,113.5,70.05,131.42,50,9.61-10.73-14.28-32-25-81.27-12.11-55.57,6.59-82,12.52-156.3,5.35-67-8.76-59.57-6.26-131.29,3.72-107,37.91-203.31,50.07-237.57,13.89-39.13,21.24-51.17,25-81.27,7-56-10.3-78.71,0-125,8.8-39.59,25-38.93,43.81-81.27,42.09-94.86-2-182.2,25-193.81,11.82-5.06,20.39,11.51,62.58,37.52,70.49,43.43,102.59,31.7,131.43,68.77,15.23,19.57,40.51,66.81,46.94,103.15,10.8,61.12-3.18,140.7-6.26,162.55-17,120.21-20,166.94-15.65,203.18,7.68,64.53,16.84,76.29,31.29,187.56,6,46.25,9.63,84.28,0,131.28-8.66,42.31-17.47,40.18-25,81.28-6.91,37.54-1.76,51.3,0,143.79,1.49,78.67,10.66,50.39,6.34,53.92-37.52,30.7-64,21.88-109.52,21.88-31.29,0-95.14-27.74-129.56-24.61-26.38,2.4,58.8,46.21,205.82,92.41,151.07,47.48,294.73,79.26,298.24,67.21,2.72-9.38-85.76-26.42-121-94.37-16.59-32-22.49-20-18.86-103.94,6.13-141.41-10.66-130.86,0-212.56,11.55-88.44,31.39-102.08,31.3-181.3-.08-59-11.08-53.94-12.52-112.53-2.19-89.22,23.28-102.94,37.55-237.57,1.3-12.31,2.95-45.72,6.26-112.54,3.74-75.65,3.72-94.43-6.26-118.78-9.25-22.56-13.56-17-43.81-68.77-20.44-35-30.66-52.47-37.55-75-11.76-38.48-63.36-52.94-78.23-78.15-17.58-29.8-87.61-48-87.61-62.52,0-31.3,201.65-38.68,247.2-53.14,37-11.76,47.38-11.78,62.58-25,23.61-20.54,24.83-43.26,43.81-93.77,8.57-22.82,20.32-46.47,43.81-93.78C1745.36,2050.68,1766.46,2024.65,1754.89,2007.27Zm-212.78,118.79c-16.39,28.31-5.55,48.48-18.77,56.26-12.77,7.53-26.64-9.07-56.33-18.75-61-19.89-122.46,11.1-125.16,12.5-38.49,20.07-42.24,44.21-68.85,43.77-24.33-.41-47.12-21-56.32-43.77-14.4-35.62,7.89-68.24,12.52-75,7.1-10.4,10.75-90.41,40.68-103.15,75.61-32.19,113.84,77.48,209.65,59.39,12-2.28,45.21-9.32,75.1,6.25,6.63,3.45,17.24,9.16,18.77,18.76C1575.64,2096.25,1556,2102,1542.11,2126.06Z"/><path class="cls-1" d="M1667.28,2369.88c5.09-34.93,39.82-46,68.84-75,40.68-40.64,40.18-41.42,46.94-40.64,7.11.82,0,18.76,3.13,103.16,4.2,113.28,14.87,123.15,12.51,225.06-1.56,67.5-8.4,123.4-12.51,156.3-9.64,77.12-15.37,82.24-25,150-14.69,103-4.38,111.61-18.77,262.58-4.25,44.53-10.69,206.9-15.65,228.19-5.12,22-39.65,124.41-40.68,159.42-.88,30.21,2.81,47.87,6.26,75,10.48,82.26,5.81,149.46,0,150-6.17.62-4.67-74.81-50.06-100-15.76-8.75-32.37-6.69-40.68-15.63-21-22.57,19.32-68.78,34.42-134.41,8.84-38.44,6.37-57,6.26-131.29-.14-85.87-.32-204.11,12.51-318.84,18.59-166.18,18.78-81.27,21.91-215.69,1.15-49.48-18.15-126.49-15.65-196.93,1.2-33.8,5.56-31.7,12.52-112.53,7.89-91.71,4-114.87,0-131.29C1669.17,2389.68,1665.36,2383,1667.28,2369.88Z"/><path class="cls-1" d="M1836.25,1938.5c-26.75,25.6-15.64,78.8-12.51,93.78,8.53,40.89,27.5,58.35,43.8,87.53,16.78,30,19.54,80.45,25,181.3,5.73,105.1,8.6,157.65,0,212.56-2.14,13.62-6.71,39.38-6.26,75,.58,45.77,9.07,78.66,12.52,93.78,16.67,73.23-1.95,95,0,225.06,1.64,109.74,22.39,100.38,12.51,181.31-15.64,128.16-14.83,117.8-34.42,209.43-34.52,161.47-39.3,130.18-59.45,240.7-22.74,124.71-14.84,164.49-56.33,225.06-25.42,37.12-68,83.1-51.55,96.23,21,16.8,67.21,21,172.22,25.2,50.37,2,75.83-10.85,79.6-21.4,4-11.27-24.61-19.43-37.55-50S1938,3712.8,1936.39,3614c-.76-47.24,14.82-145.41,28.47-205.13,31-135.59,21.26-157.69,37.24-260.63,13.7-88.31,43.86-168.43,37.86-274.43-2.93-51.73-9.12-221.74-12-288-6.26-143.79,11-98-.83-162.78-3-16.33,0,6.25,50.07-18.76,26.64-13.3,41.81-41.3,68.84-62.51,49.4-38.77,36.14-53,72-59.4,12.77-2.28,19.15-3.42,25,0,25.46,14.83-3.12,78.86,31.29,137.54,2.25,3.82,35.19,35.05,34.42,28.14-12.51-112.54-4.89-103.4-6.79-124.23-2.66-29,4-93-27-142-28.47-45-43-134-60.08-140.14-8.82-3.17,10,52-6.92,107.14-11.08,36.07-31.59,31.35-40,39.78-25.4,25.4-52.13,9-106.39,37.51-22.39,11.76-33,22.5-37.55,18.75-9.24-7.57,36.06-49.83,31.29-106.28-3.12-37-24.87-45.94-18.77-75,7.19-34.31,47.16-31.29,53.19-34.38,44.91-23,64.72-17.58,115.78-34.39,38.25-12.59,67.59-31.53,128.3-65.64,35.73-20.08,56.83-28.55,100.13-25,24,2,30.54,52.5,37.55,87.52,12.52,62.52,3.13-9.37,25,218.82,1.38,14.37,77.06-20.45,75.1-25-37.55-87.52-16-231.46-25-256.32-15.23-41.92-27.59-34.92-37.55-81.28-7.57-35.25-14.95-55.53-28.16-65.64-22.61-17.31-64,5.8-106.39,25-85.26,38.56-57.66,8.25-256.59,75-120.53,40.45-126.6,50.22-169,50C1894.94,1932,1859.84,1915.94,1836.25,1938.5Z"/><path class="cls-1" d="M2136.65,2582.44c14.13-42.25,93-23.75,244.08-68.77,104.88-31.25,157.32-46.87,206.52-87.52,26.16-21.62,44.85-43.49,62.58-37.52,28.88,9.74,30.17,84.82,31.29,150,1.26,73-7.75,88.87,0,131.29,11.56,63.22,69.88,91.13,56.33,118.78-4.49,9.16-10,6-31.29,25-28.9,25.84-30.9,79.79-40.68,78.15-7.78-1.31-15.36-49.34-21.91-84.4-8.85-47.42-12.18-83.89-12.51-87.53-9.17-100.1-16-111.12-25-118.78-14.8-12.57-40.72-20.55-62.58-12.51-5.91,2.17-13.79,5.07-18.77,12.51-13.71,20.43,12,49.1,18.77,87.52,5.58,31.51-4.6,52.29-18.77,93.78-17.87,52.3-26.52,93.21-43.81,175.05-24.46,115.73-5.59,122.67-31.29,212.56-19.36,67.69-28.35,57.81-50.07,131.29-16.49,55.8-37.24,128.68-25,218.81,4.5,33.27-25.34,155.56,7.21,201.43,4.76,6.7,30,22,63,46.21,28.94,21.21,84-4.2,110.67-4.18,28.23,0,29.45-47.88,36.35-21,7.61,29.63-16.8,37.8-54.61,50.4-30.84,10.28-71.41,21-121.81,33.61-66.45,16.61-149.24,33.85-184.82,37.8-151.22,16.8-189.08-10.24-190.82-26.28-.71-6.53,34.42,28.13,106.39-6.26,69.94-33.41,50.07,0,84.49-46.88,7.85-10.7,28.94-29.21,43.8-125,9.29-59.85,8.88-118.15,12.52-246.07,2.83-99.49,3.94-107.49,6.26-118.78,15.72-76.7,41.62-84.86,50.07-156.3,5.81-49.19-4.65-60.75,6.25-112.53,8.26-39.21,16.46-43.07,31.3-87.53,36.62-109.74.71-128.34,37.55-193.8,12.08-21.47,33-49.81,37.55-93.78,2.46-23.9-2-32.63-6.26-37.51-16.69-18.93-59.88-12-87.62,6.25-18.45,12.17-12.67,17.93-31.29,31.26-38,27.24-92.13,24.73-93.88,25a457.6,457.6,0,0,0-6.25,87.52c-1.49,55.17,3.46,88.13-.27,100.17-2.86,9.24-31.28,37.75-34.15,40.5-12.47,11.91-14.7,67.41-37.55,75-11.84-7.77,1.26-87.8,9.38-153.17,3.92-31.5,11.66-93.78-6.26-162.55C2147.16,2608,2130,2602.43,2136.65,2582.44Z"/><path class="cls-1" d="M2599.77,1857.23c29.73-24,66.42-6.36,118.9-6.25,81,.17,89.66-41.59,156.46-31.26,16.75,2.59,40.37,14.23,87.62,37.51,60.7,29.91,62.21,35.6,125.16,68.77,54,28.43,88.64,43.1,131.43,81.27,20.83,18.59,32.59,32.94,31.29,50-1.84,24.16-33.15,79.58-53.9,76.33-16.81-2.64-21.32-21.18-37.55-43.77-25.92-36.08-59.1-51-112.65-75s-92.55-41.56-125.16-25c-14.78,7.5-16,15.8-31.29,18.76-28.45,5.5-40.51-51.84-71.27-45.07-12.46,2.74-20.88,9.23-25,12.51-2.45,1.92-26.69,21.5-25,43.76,1.24,16.53,15.93,23.57,37.55,43.76,3.2,3,34,32.06,50.07,62.52,26.61,50.42,20.81,119.56,18.77,143.79-1.73,20.59-5.31,41.51,6.26,50,8.44,6.21,15.81-.93,43.81,0,17,.57,19.28,3.37,50.06,6.26,18.19,1.7,27.37,2.5,31.3,0,18.76-12,9.42-59.08,6.25-75-9.8-49.42,10.49-60.88,21.91-78.14,6.51-9.85,16.3-72.58,21.9-71.9,2.64.32,12.51,7.1,6.26,162.55-4.73,117.7-10.08,106-6.26,137.54,6,49.75,16.51,59.85-3.13,84.4-12.6,15.75-18.77,37.51-31.29,62.52-1,2.07-13.39-26.74-9.39-53.14,5-33.21,10.21-38.82,6.26-43.77-7.89-9.9-31.72,8.49-81.36,12.51-26.87,2.17-37.24-1.82-43.8,6.25-10.22,12.55,5.2,34.09,12.51,62.52,12,46.74,18,95,8.54,158.37-4.11,27.33-4.91,80.36,2,158,7.79,87.61-8,61.66-10.54,115-1.42,29.6,17.91,33.62,10.54,76-7.81,44.88,0,70.81-19,143-27.15,103.22-3.36,116.36-12.67,189.89-4.86,38.39-12.17,99.22,6.26,106.28,12,4.6,17.58-7.07,127.52-65,0,0,76.6-40.38,169-106.28,28.54-20.36,55.89-41.29,62.58-75,5.58-28.15-4-61.34-6.26-68.77-8.09-26.48-16.2-29.38-18.77-50-2.89-23.2,5.72-32.74,12.51-62.51,12.11-53.09-.94-85.64,6.26-87.53,9.15-2.4,36.13,48.64,50.07,106.28,15.25,63.05-.09,72,18.77,118.79,15.79,39.17,34.14,51.8,31.29,81.27-2.33,24.2-17.2,41.53-31.29,56.27-60,62.71-127,100.29-137.68,106.28-93.88,52.76-140.83,79.14-181.49,112.53-60.4,49.59-137.7,126-250.33,168.8-25,9.48-59.14,13.72-68.84,0-9.45-13.35,10.26-37.11,31.29-81.28,0,0,20.59-43.24,37.55-112.53,19.92-81.37-2-105.32,6.26-231.31,4.06-62.18,8.77-47,12.51-106.29,8.75-138.74-20.06-174.4,6.26-262.57,15.17-50.83,26.51-44.87,37.55-93.78,12.95-57.35,3.4-92.26-6.26-181.3-11.18-103.06-1.74-87.24-12.51-181.3-11.33-98.91-17-148.36-37.55-206.31-40.89-115.24-100.14-193.81-100.14-193.81-26.52-35.17-38.54-63-62.58-118.78-5.76-13.36-15.92-38.13-6.26-62.52A61.86,61.86,0,0,1,2599.77,1857.23Z"/><path class="cls-1" d="M3785.72,2273c9.11-10.64,53.59-34.6,87.61-162.55,22.34-84,12.52-137.54-18.77-125-73.5,29.37-107.49,52.17-134.56,71.9-50.41,36.74-105.47,39.69-181.49,43.76-53.39,2.86-94.2,5-143.94-12.5s-65.53-39.62-87.62-31.26c-26.88,10.18-23.65,50.66-43.8,137.54-11.55,49.77-28.54,123-68.84,200.06-30.44,58.14-29.53,41.18-34.43,78.14-6.21,47-62.58,56.27,6.26,156.3,9.64,14,46.88,121.85,131.43,206.31,43.81,43.76,102.94,252.34,103.26,272,.91,55.65-11,105.58-2.63,110s58.16-53.71,105-117.61c46.2-63,113.12-161.85,109.21-168-5.72-9-79.81,71.41-105,67.21-7.15-1.19-9.8-46.7-22.1-63.49-11.81-16.12-24.61-40.23-25-50-1.71-39.6-15.15-84.78-34.42-121.91-12.78-24.64-29.46-41.52-62.58-75-30.41-30.76-55.07-48.86-50.07-62.52,3.21-8.74,16.82-10.88,25-12.5,24.78-4.88,68.67-30.34,156.45-81.27,52.45-30.43,71.75-46.45,87.62-37.51,10.71,6,7.2,16.28,18.78,43.76,20.13,47.78,14,42.66,26.92,83.32,10.29,32.51,53.24,132.83,65.71,128.17,50.07-18.76,119.61-298.2,150.9-385.73,4-11.06-46-34-66.22-44.13-12.52-6.26-47.13,8.55-47.13,11,0,6.26,20.88,25.18,29.35,29.11,14.68,6.8,12.57,29.55,9,36-53,95.71-17.27,31.2-47.42,121.54-6.26,18.76-18.77,62.52-31.29,56.27-45.13-22.54-24.11-151.19-52.27-191.83-9.42-13.58-17.11-18.79-9.39-21.88C3660.55,2348,3770.7,2290.5,3785.72,2273Zm-269.11,37.51c-78.11,52-51.14,45.38-81.36,93.77-32.67,52.32-29.07,33.26-62.58,75-24.28,30.25-37.78,54.31-56.33,50-22.61-5.24-15.52-112.88,0-156.29,31.29-87.53,52.8-179.46,62.37-174.15,56.32,31.26,44.18-7.16,119.12-7.16,50.07,0,168.35-8.87,193.94-20.47,41.34-18.73,27.31-37.14,40.68-28.13,14.67,9.89-18.78,100-43.81,106.28C3628.84,2264.31,3535.38,2298,3516.61,2310.49Z"/></g></g></svg>