<?xml version="1.0" encoding="UTF-8"?>
<svg id="Layer_2" data-name="Layer 2" xmlns="http://www.w3.org/2000/svg" viewBox="0 0 580 650.95">
  <defs>
    <style>
      .cls-1 {
        fill: #698f3f;
      }
      .cls-2 {
        fill: #fbfaf8;
      }
    </style>
  </defs>
  <g id="Layer_1-2" data-name="Layer 1">
    <g>
      <g id="c">
        <g>
          <path class="cls-1" d="M389.31,65.34v9.7h-7.39c-.42,0-.76.34-.76.76v12.22h-44.39c-5.68-.03-10.36-4.23-11.15-9.69-.09-.53-.13-1.08-.13-1.64,0-.28.01-.56.04-.83.03-.44-.33-.81-.77-.81h-8.66v-9.7h20.62c.91,0,1.64-.74,1.64-1.64s-.73-1.64-1.64-1.64h-22.09c-1.3-3.72-3.49-7.04-6.3-9.7h28.44c6.24.03,11.28,5.09,11.28,11.34,0,2.38-.7,4.63-1.95,6.45-.19.27-.39.54-.61.8-1.46,1.76-3.46,3.07-5.74,3.69-.86.24-1.75.38-2.68.4h-.06c-.06,0-.18,0-.18,0-.9,0-1.64.74-1.64,1.64,0,.45.18.86.48,1.16.29.29.71.48,1.16.48h34.64v-12.98h17.85Z"/>
          <path class="cls-1" d="M455.39,78.33v9.69h-32.02v-22.68h17.85v9.7h-7.39c-.42,0-.76.34-.76.76v1.76c0,.42.34.76.76.76h21.56Z"/>
          <path class="cls-1" d="M216.64,69.89c-.01.36,0,.72.03,1.07.12,1.35.58,2.61,1.28,3.69,1.45,2.22,3.96,3.69,6.81,3.69h14.19v9.69h-14.19c-6.9,0-12.9-3.94-15.86-9.69-.6-1.16-1.08-2.4-1.41-3.69-.3-1.19-.49-2.42-.55-3.69-.01-.36-.02-.73-.01-1.11.18-9.76,8.36-17.48,18.12-17.48h45.37v9.69h-45.46c-4.41,0-8.16,3.42-8.32,7.82Z"/>
          <path class="cls-1" d="M309.25,70.06c0,.3,0,.6-.02.89-.04,1.25-.23,2.49-.54,3.69-.32,1.28-.79,2.51-1.39,3.69-.83,1.61-1.9,3.11-3.21,4.43-3.38,3.39-7.87,5.26-12.66,5.26h-45.66v-22.68h17.85v9.7h-7.39c-.42,0-.76.34-.76.76v1.76c0,.42.34.76.76.76h35.21c2.2,0,4.26-.86,5.8-2.43.38-.39.72-.81,1.01-1.25.72-1.1,1.16-2.36,1.28-3.69.03-.29.04-.6.04-.9-.07-4.41-3.8-7.99-8.29-7.99h-3.57c-.42,0-.76.34-.76.76v12.22h-9.7v-22.68h13.99c9.87,0,17.96,7.93,18.02,17.69Z"/>
          <polygon class="cls-1" points="364.63 17.8 364.63 78.33 354.94 78.33 354.94 27.49 364.63 17.8"/>
        </g>
      </g>
      <path class="cls-2" d="M500.86,70.95c.94-2.26,1.42-4.71,1.42-7.25,0-10.26-8.35-18.66-18.65-18.71h-111.62V0l-24.44,24.44v24.05c-3.07-2.2-6.82-3.47-10.8-3.49h-111.71c-11.81,0-21.89,8.12-24.71,19l-11.28-14.83c-1.98-2.65-5.01-4.17-8.32-4.17h-4.84c-3.27,0-6.29,1.5-8.28,4.11l-6.35,8.36c-2.63-7.24-9.68-12.47-17.84-12.47h-47.71c-10.15,0-18.64,8.14-18.95,18.15-.08,2.72.42,5.37,1.44,7.81h-43.23C15.67,70.95,0,86.62,0,105.95v545h580V105.9c0-19.3-15.65-34.95-34.95-34.95h-44.2ZM576.31,647.27H3.69V105.96c0-17.29,14.02-31.31,31.31-31.31h50.18c-.16-.15-.32-.31-.48-.47-.94-.97-1.75-2.06-2.38-3.21-1.29-2.32-1.94-4.97-1.86-7.7.24-8.03,7.08-14.57,15.26-14.57h47.71c8.26,0,15.1,6.61,15.25,14.74.02,1.44-.15,2.86-.52,4.21l12.39-16.3c1.28-1.69,3.24-2.65,5.34-2.65h4.84c2.14,0,4.1.98,5.37,2.69l14.88,19.58,2.68,3.52c-.23-1.15-.38-2.32-.41-3.52-.02-.38-.02-.78-.01-1.17.22-11.63,10-21.1,21.81-21.1h111.71c6.96.03,12.81,4.81,14.49,11.25V25.96l17.07-17.07v39.79h115.3c8.26.04,14.97,6.78,14.97,15.02,0,2.59-.62,5.06-1.81,7.25-.24.45-.51.88-.8,1.3-.6.87-1.3,1.67-2.06,2.39h51.09c17.29,0,31.3,14.01,31.3,31.3v541.33Z"/>
      <path class="cls-2" d="M483.63,91.71c-3.74-.01-7.17-1.41-9.78-3.69-2.69-2.34-4.54-5.6-5.05-9.29h-9.72v12.97h-44.2v40.29l-17.07-17.96v-35.3h-12.97v12.97h-48.08c-3.74-.01-7.16-1.41-9.78-3.69-2.69-2.34-4.54-5.6-5.05-9.29h-10.76c-1.05,2.43-2.56,4.68-4.49,6.62-1,1-2.06,1.89-3.21,2.67-3.53,2.4-7.69,3.69-12.06,3.69h-74.66l2.8,3.69,21.47,28.25-21.7.05-21.54-28.3-2.8-3.69-1.66-2.17-1.13-1.51-7.25-9.69-2.76-3.69-2.75-3.69-1.13-1.5-1.13,1.5-5.51,7.37-7.25,9.69-2.76,3.69H35.03c-7.88,0-14.28,6.39-14.28,14.28v524.22h538.5V105.9c0-7.84-6.36-14.2-14.2-14.2h-61.43ZM555.56,626.52H24.44V105.98c0-5.85,4.74-10.59,10.59-10.59h128.5l5.51-7.37,7.25-9.69,2.03-2.72,2.03,2.72,7.25,9.69,2.76,3.69.04.05,2.76,3.63,24.34,31.99,30.95-.07-24.26-31.92h67.22c4.71,0,9.22-1.28,13.14-3.69,1.68-1.02,3.25-2.26,4.67-3.69l.07-.07c1.64-1.66,3.04-3.52,4.16-5.53h5.55c.66,2.05,1.67,3.94,2.95,5.6,1.08,1.39,2.34,2.64,3.75,3.69,3.11,2.3,6.94,3.66,11.04,3.69h51.77v-12.97h5.6v33.09l24.44,25.71v-45.82h44.2v-12.97h3.11c.66,2.05,1.67,3.94,2.96,5.6,1.08,1.39,2.34,2.64,3.75,3.69,3.11,2.3,6.94,3.66,11.04,3.69h61.43c5.8,0,10.51,4.71,10.51,10.51v520.62Z"/>
      <path class="cls-1" d="M572.63,105.94v537.64H7.37V105.98c0-15.27,12.38-27.66,27.66-27.66h69.79c.99,0,1.79-.89,1.62-1.91-.13-.81-.89-1.37-1.71-1.37h-9.25c-1.04,0-2.05-.14-3.01-.41-2.26-.62-4.24-1.93-5.71-3.69-1.7-2.05-2.71-4.7-2.62-7.59.18-6.16,5.4-10.99,11.57-10.99h47.71c6.21,0,11.44,4.91,11.56,11.12.04,2.76-.88,5.37-2.62,7.46-.22.27-.45.52-.7.77-1.42,1.42-3.13,2.41-5.01,2.92-.97.27-1.98.41-3.01.41h-10.22c-.42,0-.76.34-.76.76v1.76c0,.42.34.76.76.76h21.24l5.6-7.37,13.22-17.39c.58-.76,1.46-1.19,2.41-1.19h4.84c.97,0,1.84.44,2.42,1.21l13.2,17.38,5.6,7.37,7.37,9.69,2.8,3.69,2.8,3.69,18.68,24.58-12.46.03-18.72-24.61-2.81-3.69-2.8-3.69-.55-.72-6.72-8.97-2.76-3.69-2.76-3.69-5.12-6.84c-.3-.41-.91-.41-1.22,0l-5.12,6.84-2.76,3.69-2.76,3.69-7.25,9.69h-36.85v-22.68h20.61c.4,0,.8-.11,1.1-.36.41-.34.63-.83.61-1.36-.04-.86-.83-1.56-1.75-1.56h-48.07c-.99,0-1.78.89-1.61,1.92.13.81.89,1.36,1.7,1.36h9.02c4.2,0,7.96,2.23,9.99,5.61.67,1.11,1.16,2.36,1.41,3.69.1.55.16,1.12.18,1.7.02.68-.02,1.33-.11,1.98-.8,5.48-5.53,9.69-11.23,9.69H35c-9.91,0-17.93,8.03-17.93,17.93v527.93h545.87V105.9c0-9.88-8.01-17.88-17.88-17.88h-61.43c-5.68-.03-10.37-4.23-11.16-9.69-.09-.53-.13-1.08-.13-1.64,0-.27.01-.55.04-.81.04-.45-.32-.83-.77-.83h-8.67s0-9.7,0-9.7h20.53c.81,0,1.57-.55,1.71-1.35.17-1.02-.61-1.92-1.61-1.92h-72.37s0,60.69,0,60.69l-9.7-10.2v-50.5h-30.03v-9.69h112.16c6.24.03,11.28,5.09,11.28,11.34,0,2.38-.7,4.63-1.95,6.45-.19.27-.39.54-.61.8-1.46,1.76-3.46,3.07-5.74,3.69-.86.24-1.75.38-2.68.4h-.16c-.74,0-1.44.46-1.64,1.18-.18.64.02,1.23.41,1.63.29.29.71.48,1.16.48h61.33c15.25,0,27.62,12.36,27.62,27.62Z"/>
    </g>
  </g>
</svg>