<?xml version="1.0" encoding="UTF-8"?>
<svg id="Layer_2" xmlns="http://www.w3.org/2000/svg" viewBox="0 0 1275.75 1287.04">
  <defs>
    <style>
      .cls-1 {
        fill: #000;
      }
    </style>
  </defs>
  <g id="Layer_5">
    <g>
      <path class="cls-1" d="M1275.75,12c-65.43,3.3-120.66,40.52-184.11,52.06-59.03,10.74-110.29-16.58-163.92-36.58-50.71-18.91-96.34-20.07-147.48-2.14-46.39,16.26-91.98,41.8-142.36,41.66-52.02-.15-98.17-26.98-146.32-42.94-49.91-16.55-93.06-13.44-142.29,3.95-54.15,19.13-107.82,46.9-166.88,36.21C119.31,52.81,65.16,15.08,0,12V0c65.35,3.16,120.17,40.7,183.5,52.19,58.54,10.62,111.42-16.76,165.01-35.86,49.16-17.53,92.32-20.25,142.19-3.9,48.07,15.76,95.37,42.58,147.18,42.58,49.84,0,95.78-25.01,141.86-40.74,51.67-17.64,96.22-16.21,147.51,2.07,53.63,19.12,106.43,46.49,165.01,35.86,63.33-11.49,118.13-49.02,183.5-52.19v12Z"/>
      <path class="cls-1" d="M1275.75,32c-66.02,3.42-122.53,40.01-186.68,51.53-59.59,10.7-107.2-17.34-160.06-39.69-49.95-21.12-96.15-21.32-146.74-2.22-46.97,17.73-92.79,45.59-144.4,45.38-51.59-.22-95.63-27.69-142.89-44.41-50.27-17.79-94.01-13.03-143.76,4.13-55.83,19.26-112.76,48.77-173.44,37.64C116.01,73.03,64,34.98,0,32v-12c64.81,3.03,118.25,40.89,180.93,52.27,59.6,10.82,114.3-17.5,169.02-36.67,49.36-17.29,92.69-20.95,142.7-4.01,47.92,16.24,93.29,43.21,145.23,43.41,50.83.2,96.39-26.07,143.01-42.84,50.88-18.31,96.89-17.45,147.28,2.18,53.44,20.81,103.38,48.31,162.66,37.56,63.66-11.55,119.32-48.53,184.92-51.89v12Z"/>
      <path class="cls-1" d="M1275.75,52c-67.11,3.42-125.43,39.31-190.78,50.69-60.18,10.48-102.85-19.11-154.15-44.72-49.27-24.6-94.94-23.16-145.3-2.26-47.54,19.73-94.5,51.4-147.64,51.29-50.55-.1-91.97-29.03-137.45-46.74-50.89-19.81-95.85-12.55-146.55,4.42-58.2,19.48-120.45,51.84-183.47,39.91C110.79,93.3,62.04,54.92,0,52v-12c63.29,2.95,114.12,41.13,175.12,52.44,61.54,11.41,120.38-19.13,177.09-38.46,50.1-17.08,94.24-22.74,144.74-4.24,46.64,17.09,89.69,45.06,140.92,45.25,52.2.19,98.37-29.03,145.57-47.51,50.45-19.75,96.58-20.15,146.24,2.24,52.3,23.58,98.12,52.13,157.91,41.5,64.57-11.48,121.75-47.8,188.16-51.23v12Z"/>
      <path class="cls-1" d="M1275.75,72c-68.55,3.32-129.07,38.46-195.99,49.62-61.09,10.18-97.66-21.58-146.77-51.14-48.46-29.17-93.02-25.34-143.37-2.27-48.03,22-96.9,58.67-151.75,58.79-49.15.11-87.51-30.83-130.57-49.68-51.44-22.52-98.55-12-150.27,4.77-60.97,19.77-130.2,55.83-195.98,42.78C104.17,113.6,59.56,74.88,0,72v-12c61.09,2.9,108.28,41.42,166.86,52.7,64.09,12.34,128.96-21.41,188.23-41,51.12-16.89,96.81-25.37,147.95-4.55,44.58,18.15,84.82,47.83,134.84,47.85,53.82.03,101.45-33.52,149.2-54.14,50.46-21.79,95.47-23.92,144.58,2.27,50.63,26.99,90.73,57.54,151.34,47.15,65.94-11.3,125.11-46.9,192.76-50.29v12Z"/>
      <path class="cls-1" d="M1275.75,92c-70.23,3.18-133.14,37.53-201.87,48.41-28.63,4.53-53.63,3.03-79.03-11.71-21.88-12.7-39.3-31.66-59.47-46.67-106.1-79-191.8,64.29-297.51,64.97-47.65.31-82.57-32.91-122.81-52.99-51.66-25.78-102.02-11.37-154.57,5.18-63.91,20.12-141.27,60.39-210,46.02C96.65,133.95,56.85,94.86,0,92v-12c58.48,2.87,101.25,41.72,156.93,53.01,66.94,13.56,139.33-24.14,201.46-44.05,52.1-16.69,100.36-28.7,151.95-4.93,41.96,19.33,78.98,51.16,127.54,50.97,107.26-.42,186.71-131.4,296.05-59.81,21.39,14,40.41,31.82,63.27,43.57,26.05,13.39,51.61,15.08,80.26,10.39,67.63-11.05,129.09-45.88,198.29-49.15v12Z"/>
      <path class="cls-1" d="M1275.75,112c-72.01,3.01-137.35,36.57-207.99,47.16-28.63,4.29-52.79,3.16-76.91-13.98-20.25-14.39-34.92-35.2-53.01-51.94-98.48-91.15-198.15,72.79-299.98,73.76-46.26.44-77.47-35.1-114.75-56.43-51.36-29.39-106.1-10.65-159.07,5.59-42.54,13.04-84.51,28.07-127.48,39.73-31.38,8.51-64.59,16.86-97.06,9.66C88.75,154.29,54.19,114.84,0,112v-12c55.77,2.85,93.49,42.15,146.11,53.34,31.96,6.8,64-.61,94.93-9.08,40.77-11.17,80.53-25.72,120.88-38.28,52.77-16.43,104.76-32.54,156.37-5.34,39.06,20.58,72.52,54.73,119.59,54.36,104.32-.82,195.14-152.42,298.49-68.48,19.34,15.7,35.66,35.41,56.89,48.78,24.91,15.69,49.56,17.05,78.18,12.62,69.49-10.76,133.38-44.8,204.32-47.91v12Z"/>
      <path class="cls-1" d="M1275.75,132c-73.75,2.85-141.42,35.64-213.9,45.95-28.67,4.08-52.2,3.38-74.88-16.14-18.71-16.11-30.65-38.64-46.72-57.06-89.03-102.06-205.4,81.19-302.38,82.25-45.18.5-72.52-37.2-106.96-59.76-50.5-33.08-110.5-9.87-163.39,6-46.1,13.83-91.65,29.62-138.16,42.07-32.02,8.57-67.25,18.47-100.46,10.57-22.13-5.26-39.88-18.28-58.78-30.2-22.26-14.05-43.5-22.22-70.13-23.67v-12c53.19,2.83,85.61,42.37,135.18,53.68,32.79,7.48,66.81-1.5,98.46-10.03,44.41-11.98,87.83-27.32,131.82-40.68,52.99-16.1,109.75-36.63,160.84-5.76,36.12,21.83,65.79,58.26,111.57,57.79,99.96-1.03,206.11-172.94,300.95-77.23,17.27,17.43,30.83,38.94,50.45,54.02,23.56,18.11,47.43,19.07,76.07,14.87,71.39-10.47,137.68-43.72,210.4-46.67v12Z"/>
      <path class="cls-1" d="M1275.75,152c-75.3,2.74-145.04,34.8-219.17,44.87-28.73,3.9-51.93,3.69-73.13-17.96-17.34-17.71-26.77-41.77-41.01-61.72-79.21-110.98-212.57,88.8-304.57,89.82-44.53.49-68.07-39.03-100-62.73-49.18-36.51-114.8-9.07-167.16,6.36-49.34,14.54-98.13,31.04-147.88,44.2-32.48,8.59-69.61,19.91-103.39,11.34-20.8-5.27-36.48-18.21-53.61-30.36-20.58-14.6-40.28-22.37-65.83-23.8v-12c26.17,1.44,46.75,9.46,68.32,23.73,18.16,12.02,35.06,25.01,56.62,30.27,33.47,8.17,69.48-2.32,101.71-10.9,47.85-12.74,94.75-28.83,142.2-42.95,52.73-15.69,114.97-40.65,164.98-6.15,33.38,23.03,59.18,61.51,104.05,61.01,94.96-1.06,218.23-191.32,303.29-85.43,15.31,19.06,26.21,42.23,44.35,59,22.08,20.41,45.43,20.93,74.13,16.92,73.17-10.2,141.71-42.7,216.11-45.49v12Z"/>
      <path class="cls-1" d="M1275.75,172.01c-76.53,2.72-147.93,34.09-223.36,44.01-28.74,3.78-51.97,4.11-71.87-19.22-16.26-19.05-23.52-44.4-36.24-65.61-11.53-19.24-27.24-37.42-51.71-37.36-29.02.06-58.11,20.02-81.38,35.07-30.01,19.4-58.22,41.45-88.07,61.08-24.26,15.96-54.73,36.71-85.24,37.04-44.42.48-64.41-40.33-94.45-65.11-47.63-39.29-118.5-8.33-170.03,6.65-52.04,15.13-103.54,32.21-155.98,45.97-32.76,8.6-71.38,21-105.51,11.89-19.81-5.29-33.7-18.09-49.39-30.49-19.2-15.18-37.76-22.5-62.53-23.9v-12c25.19,1.42,44.38,9.01,64.37,23.85,16.51,12.25,31.43,25.14,51.79,30.42,33.95,8.81,71.74-3,104.35-11.59,50.89-13.42,100.85-30.17,151.35-44.96,52.05-15.25,119.87-44.2,168.44-6.48,31.09,24.15,53.16,64.25,97.58,63.77,30.18-.33,60.35-20.25,84.57-35.81,29.44-18.92,57.29-40.21,86.88-58.9,23.25-14.68,52.02-33.82,80.74-33.91,24.3-.07,40.77,17.48,53.16,36.18,13.59,20.5,22.1,45.1,38.96,63.39,20.65,22.39,43.81,22.4,72.56,18.55,74.7-10,145.16-41.77,221-44.49v12Z"/>
      <path class="cls-1" d="M1275.75,192.01c-77.28,2.83-149.8,33.58-226.04,43.46-28.62,3.71-52.3,4.68-71.29-19.68-15.57-19.98-21.18-46.31-32.81-68.41-32-60.77-86.2-32.99-132.29-2.38-30.56,20.3-59.2,43.31-89.59,63.85-24.42,16.51-54.85,37.83-85.85,38.15-44.91.47-61.85-40.87-90.86-66.64-46.25-41.08-120.99-7.67-171.6,6.84-54.01,15.48-107.44,33.05-161.81,47.25-32.86,8.58-72.23,21.53-106.51,12.1-19.24-5.29-31.8-17.93-46.48-30.58-18.28-15.76-36.25-22.6-60.62-23.96v-12c24.55,1.39,42.81,8.52,61.57,23.93,15.22,12.5,28.51,25.24,48.04,30.54,34.22,9.27,73.25-3.42,106.06-12.01,53.31-13.96,105.67-31.3,158.62-46.55,51.2-14.74,123.76-46.9,170.83-6.74,29.5,25.18,48.21,66.31,92.74,65.83,30.72-.33,61.27-21.45,85.57-37.64,30.09-20.05,58.5-42.52,88.76-62.33,23.3-15.26,52.48-35.58,81.68-35.63,24.64-.04,39.91,18.36,50.99,37.95,12.22,21.62,18.76,47.39,34.69,66.88,19.48,23.83,42.83,23.26,71.55,19.51,75.82-9.89,147.74-41,224.64-43.74v12Z"/>
      <path class="cls-1" d="M1275.75,212.01c-77.3,2.64-149.68,33.71-225.92,43.51-28.63,3.68-52.39,4.87-71.29-19.62-15.6-20.22-21.11-46.86-32.72-69.22-31.63-60.92-86.07-33.42-131.98-2.53-30.62,20.6-59.24,43.99-89.67,64.85-24.68,16.92-54.6,37.84-85.96,38.32-45.49.7-61.61-40.38-90.61-66.78-45.8-41.7-121.04-8.58-171.65,5.71-54.39,15.35-108.16,32.87-162.8,47.32-32.56,8.61-72.04,22.31-106.17,13.19-19.19-5.13-31.73-17.79-46.33-30.39-18.29-15.79-36.25-22.85-60.66-24.36v-12c24.34,1.34,42.26,7.99,60.34,23.97,14.44,12.76,26.63,25.32,45.77,30.61,34.28,9.47,73.67-3.5,106.52-12.07,54.89-14.32,108.83-31.99,163.36-47.59,50.23-14.37,125.99-48.31,171.78-6.88,28.91,26.16,44.82,67.44,90.11,66.96,31.18-.33,61.35-21.52,85.89-38.22,30.54-20.78,59.29-44.07,90-64.6,45.68-30.54,100.99-58.95,132.21,2.42,11.35,22.32,16.46,48.96,31.9,69.15,18.78,24.56,42.78,23.29,71.29,19.59,76.4-9.9,149.17-40.43,226.59-43.34v12Z"/>
      <path class="cls-1" d="M1275.75,232.01c-75.46,2.07-144.64,35.42-218.83,45.22-29.3,3.87-51.87,3.86-72.12-19.61-17.05-19.76-25.46-45.81-39.09-67.74-11.91-19.16-27.37-37.95-52.01-38.12-29-.2-57.33,20.38-79.96,36.08-29.57,20.52-57.08,43.85-86.44,64.66-24.21,17.16-53.52,38.09-84.58,39.09-46.21,1.49-66.81-40.82-97.05-67.49-47.4-41.82-116.67-14.04-170.12.58-52.12,14.26-103.59,30.76-155.67,45.13-31.78,8.77-70.46,23.72-104.12,16.3-20.13-4.44-35.21-17.34-51.44-29.18-20.04-14.63-39.19-23.05-64.33-24.92v-12c24.59,1.68,42.83,9.33,61.68,24.68,15.1,12.3,28.51,25.11,47.94,30,33.95,8.55,73.33-5.84,105.58-14.51,53.8-14.47,106.83-31.68,160.5-46.6,51.62-14.35,124.92-45.75,171.25-3.92,29.3,26.46,46.89,67.8,92.48,66.8,31.33-.68,61.09-21.57,85.7-38.6,30.1-20.83,58.36-44.19,88.65-64.75,23.17-15.72,51.94-36.23,81.37-36.02,24.85.18,39.49,18.6,50.46,38.48,12.27,22.22,18.79,48.64,34.83,68.73,19.32,24.2,42.55,23.43,71.45,19.72,75.66-9.73,147.06-41.68,223.86-44.01v12Z"/>
      <path class="cls-1" d="M1275.75,252.01c-72,2.05-135.69,37.99-206.09,48.28-29.57,4.32-52.36,2.92-74.27-18.87-19.34-19.24-32.06-44.12-48.68-65.52-14.19-18.26-32.11-36.72-56.93-36.96-27.76-.28-55.04,20.78-76.13,36.3-27.9,20.53-53.65,43.79-81.31,64.63-22.97,17.3-51.05,38.48-81.17,40.03-48.28,2.48-75.67-42.74-108.37-70.06-49.49-41.36-109.98-21.36-166.95-6.46-48.53,12.69-96.34,27.92-144.52,41.81-30.91,8.91-67.39,23.98-100.34,18.86-48.09-7.47-80.47-48.19-131-52.04v-12c25.68,1.96,45.72,10.8,66.78,24.93,17.18,11.53,33.59,24.42,54.4,28.49,33.42,6.54,71.34-8.56,102.79-17.38,50.67-14.22,100.81-30.25,151.63-43.92,54.86-14.76,120.79-39.68,169.04,2.04,31.1,26.9,54.18,70.19,101.09,68.33,30.74-1.22,59.62-22.22,83.41-39.45,28.74-20.82,55.61-44.11,84.58-64.63,22.16-15.7,49.99-36.26,78.62-36.15,24.63.09,40.93,19.03,53.66,37.73,14.75,21.68,24.65,47.46,42.59,66.93,21.02,22.81,43.29,23.43,72.84,19.39,72.85-9.95,140.09-44.29,214.33-46.3v12Z"/>
      <path class="cls-1" d="M1275.75,272.01c-67.52,2.39-123.76,41.2-189.17,52.35-66.45,11.32-96.21-38.4-138.02-80.34-17-17.05-38.5-35.74-64.1-35.29-26.57.47-51.48,20.93-71.09,36.56-25.82,20.57-49.42,43.76-74.99,64.64-21.26,17.36-47.69,38.92-76.5,41.02-51.19,3.73-87.02-45.65-122.84-73.87-18.65-14.7-38.96-26.9-63.04-29.1-32.85-3-67.68,6.46-99.31,14.27-43.94,10.85-87.11,24.54-130.41,37.66-29.79,9.02-63.42,23.75-95.29,21.02-53.65-4.59-96.11-45.12-150.98-48.93v-12c52.03,3.87,88.38,44.52,138.51,50.9,32.57,4.14,67.95-10.81,98.45-19.77,46.33-13.61,92.38-28.25,139.17-40.23,58.26-14.92,115.05-31.3,165.26,9.68,33.9,27.67,64.51,74.42,113.88,71.47,29.63-1.77,57.09-23.09,79.41-40.43,26.86-20.85,51.78-44.09,78.89-64.63,20.52-15.56,46.91-36.4,74.22-36.4,25.03,0,44.36,18.54,59.58,36.35,18.03,21.09,32.63,45.62,53.23,64.46,22.81,20.87,45.61,23.02,75.41,18.41,68.51-10.6,129.44-47.65,199.74-49.81v12Z"/>
      <path class="cls-1" d="M1275.75,292.01c-62.69,2.94-109.76,44.83-169.58,57.06-65.82,13.46-108.23-38.77-155.24-75.59-20.13-15.77-45.78-34.69-72.72-33.27-25.26,1.33-47.57,21.02-65.58,36.76-23.59,20.61-44.88,43.69-68.21,64.59-19.05,17.06-44.16,39.81-71.33,41.94-54.74,4.29-99.31-48.46-138.7-78.26-20.17-15.27-42.58-29.54-68.05-33.19-29.14-4.18-60.19,2.77-88.51,9.22-38.71,8.82-76.63,20.83-114.4,32.98-28.4,9.13-58.99,23.54-89.42,22.92-60.39-1.24-113.2-41.6-174.01-45.16v-12c57.09,3.74,103.68,44.18,159.92,47.48,31.33,1.84,63.76-12.74,93.02-21.8,41.14-12.75,82.27-25.78,124.18-35.84,30.33-7.28,63.73-15.79,95.14-12.29,24.57,2.73,45.87,15.75,65.02,30.71,36.83,28.77,76.87,79.88,129.11,75.59,28.24-2.32,53.94-24.04,74.45-41.4,24.68-20.89,47.36-44.04,72.3-64.63,18.98-15.67,42.85-35.84,68.9-36.65,26.09-.82,49.18,17.97,67.42,34.51,43.98,39.88,78.58,90.59,144.72,78.5,63.21-11.56,115.98-51.58,181.57-54.18v12Z"/>
      <path class="cls-1" d="M1275.75,312.01c-58.18,3.56-94.59,48.52-148.79,62.06-65.52,16.37-122.11-38.56-173.42-70.53-23.27-14.5-53.39-33.61-81.99-31.11-24,2.1-43.85,20.98-60.32,36.78-21.44,20.59-40.49,43.52-61.67,64.37-17.17,16.91-40.64,40.26-66.43,42.68-58.18,5.47-111.47-51.64-154.2-82.62-48.94-35.49-90.6-45.26-149.8-33.32-33.19,6.69-65.59,16.99-97.55,28.06-26.65,9.23-54.46,24.05-83.18,24.7-67.89,1.55-130.54-37.92-198.41-41.08v-12c63.61,3.41,120.3,43.14,183.7,43.54,29.68.19,59.32-14.51,86.94-23.64,35.46-11.72,71.19-23.05,107.7-31.02,26.97-5.89,56.34-11.72,83.93-7.13,26.07,4.34,49.16,19.34,70.03,34.84,40.78,30.29,88.88,84.79,145.04,80.05,26.59-2.25,51.03-25.27,69.3-42.27,22.45-20.89,42.82-43.92,65.53-64.53,17.37-15.77,38.66-35.14,63.4-36.79,27.58-1.84,55,17.16,76.4,32.41,48.87,34.83,96.77,88.1,162.47,73.58,57.55-12.72,100.51-55.86,161.32-59.05v12Z"/>
      <path class="cls-1" d="M1275.75,332.01c-54.68,4.19-79.18,51.98-128.3,66.99-65.09,19.88-136.86-37.88-191.36-65.55-26.77-13.59-60.16-31.71-91.11-28.98-22.78,2.01-41.17,21.01-56.04,36.53-31,32.36-69.09,101.63-118.65,107.01-61.1,6.63-122.11-54.26-167.59-86.3-45.17-31.82-86.62-51.41-142.31-42.31-27.71,4.53-54.71,13.24-80.9,23.2-25.17,9.56-49.71,24.65-77.04,26.51-75.2,5.11-147.48-34.36-222.46-37.09v-12c70.73,2.98,137.31,42.42,208.16,39.45,28.13-1.18,54.65-16.08,80.69-25.41,29.63-10.62,59.83-20.25,90.81-26.09,58-10.94,99.26,2.92,146.88,36.99,43.92,31.43,100.47,90.16,159.9,84.21,25.33-2.54,48.18-26.04,64.71-42.9,20.4-20.81,38.63-43.65,59.29-64.22,15.61-15.54,35.08-34.92,58.45-36.72,29.72-2.28,60.81,16,85.7,30.24,52.71,30.17,115.31,86.24,180.69,68.51,52.07-14.12,83.86-60.24,140.48-64.06v12Z"/>
      <path class="cls-1" d="M1275.75,352.01c-26.27,2.36-43.19,12.94-61.11,31.61-14.73,15.34-27.85,32.31-48.49,39.88-29.66,10.88-64.61-.71-92.57-10.95-39.36-14.42-76.76-33.68-115.29-50.08-29.65-12.62-66.3-30.32-99.27-27.09-22.18,2.17-39.36,20.35-53.47,35.88-29.34,32.3-64.16,100.43-112.67,106.17-29.68,3.51-64.23-14.33-88.77-28.55-30.85-17.87-59.12-39.81-88.35-60.12-40.23-27.96-83.41-55.96-134.32-50.38-22.67,2.48-44.62,9.85-65.53,18.69-23.95,10.13-45.04,25.7-71.44,28.49-81.83,8.64-162.89-31.12-244.48-33.53v-12c77.72,2.58,153.64,42.12,231.61,35.59,26.89-2.25,50.07-17.5,74.71-27.27,23.99-9.51,48.93-17.68,74.54-21.34,53.89-7.7,95.86,15.4,139.16,45.68,46.36,32.42,109.91,94.47,171.97,87.44,48.98-5.54,85.62-74.48,115.76-106.78,14.47-15.51,32.29-34.22,54.76-36.32,31.77-2.97,66.57,15.01,94.53,28.19,55.44,26.14,133.41,85.02,198.2,63.66,47.36-15.61,66.83-64.43,120.52-68.86v12Z"/>
      <path class="cls-1" d="M1275.75,372.01c-25.4,2.47-39.81,12.89-54.26,33.25-11.45,16.14-20.81,33.82-39.91,41.94-28.89,12.28-67.71-1.02-95.33-9.87-42.88-13.74-84.2-31.93-126.41-47.5-32.11-11.84-70.86-28.83-105.69-25.62-22.23,2.05-39.14,19.09-53.33,34.73-29.61,32.62-62.64,98.4-111.63,104.3-30.07,3.62-64.62-13.81-89.7-27.96-31.94-18.02-61.32-40.21-91.36-61.15-35.53-24.76-80.01-58.74-126.04-56.97-45.72,1.76-76.03,39.67-119.32,45.63-87.17,12.01-175.77-28.4-262.76-30.8v-12c83.93,2.36,168.18,42.34,252.33,32.32,26.17-3.12,45.94-18.92,69.45-29.37,19.01-8.45,39.12-15.31,59.97-17.06,48.89-4.08,92.79,26.69,131.03,53.23,29.68,20.6,58.52,42.69,89.94,60.67,24.82,14.2,59.62,32.04,89.53,28.45,48.5-5.82,82.4-73.18,111.57-105.55,14.02-15.56,30.97-33.32,53.08-35.48,33.75-3.3,71.4,14.16,102.1,26.44,40.09,16.05,79.16,34.86,120.01,48.99,27.86,9.63,64.41,21.95,93.78,10.46,19.94-7.8,31.48-25.07,44.83-40.76,16.49-19.37,32.29-29.9,58.13-32.32v12Z"/>
      <path class="cls-1" d="M1275.75,392.01c-25.22,2.39-38.17,12.46-49.86,34.31-8.94,16.71-15.32,34.91-33.65,43.45-28.17,13.12-69.87-1.47-96.99-9.4-45.54-13.31-89.82-30.61-134.82-45.55-33.91-11.26-73.32-27.23-109.57-24.74-23.07,1.58-40.94,17.14-56.37,32.96-32.58,33.39-65.63,95.09-117.02,101.19-63.55,7.55-130.12-53.04-177.64-86.95-32.3-23.05-75.47-59.46-117.72-61.51-42.12-2.04-67.2,38.95-106.51,45.49-44.23,7.36-92.37-2.67-135.8-9.92-46.41-7.75-92.66-17.83-139.81-19.34v-12c88.67,2.52,179.83,43.3,268.65,30.02,41.61-6.22,69.29-45.16,113.53-45.38,44.34-.22,88.68,35.19,122.71,59.06,48.2,33.82,116.47,96.28,180.67,88.59,49.69-5.95,82.51-70.35,112.93-103.22,14.54-15.71,31.67-32.2,54.13-34.1,35.47-3.01,74.67,13.6,107.59,25.18,43.45,15.29,86.08,33.1,130.15,46.64,27.42,8.42,67.56,22.3,96.14,9.59,18.7-8.31,26.75-26.23,37.09-42.62,13.24-20.98,26.92-31.3,52.16-33.76v12Z"/>
      <path class="cls-1" d="M1275.75,412.01c-25.61,2.18-38.34,11.72-48.59,34.8-7.61,17.12-12.3,35.51-30.65,44.09-27.83,13.01-70.51-2.49-97.22-10.01-46.94-13.22-92.86-29.82-139.39-44.37-34.67-10.84-73.44-25.72-110.2-24.5-24.75.82-45.04,14.77-63.04,30.57-39.06,34.29-74.12,89.36-130.02,96.29-60.24,7.46-121.05-48.4-165.44-81.58-30.24-22.61-69.82-58.62-109.77-62.93-40.05-4.32-63.37,39.78-100.36,46.8-44.94,8.52-94.98-1.92-139.19-9.07-47.12-7.62-94.08-17.99-141.87-20.08v-12c47.57,1.71,94.28,11.92,141.14,19.59,43.92,7.19,93.03,17.38,137.71,9.46,38.02-6.74,62.14-49.26,103.08-45.93,41.17,3.35,83.01,39.83,114.43,62.62,46.58,33.79,111.23,92.69,173.82,85.22,52.99-6.32,86.57-65.74,121.3-99.55,16.31-15.88,34.98-30.77,58.64-32.06,36.59-2,75.86,13.52,110.22,24.61,45.8,14.78,90.93,31.78,137.23,44.99,26.94,7.69,69.29,22.64,97.26,9.42,18.24-8.62,23.73-26.95,31.96-43.85,10.9-22.41,23.63-32.25,48.96-34.53v12Z"/>
      <path class="cls-1" d="M1275.75,432.01c-25.27,3.3-37.74,14.26-49.26,36.23-8.58,16.37-14.95,34.18-33.63,41.13-27.92,10.39-70.58-7.19-96.72-14.73-45.94-13.25-91.25-28.56-137.22-41.7-34.64-9.9-73.13-23.06-109.52-21.24-25.37,1.27-47.65,14.85-67.64,29.4-44.03,32.03-85.07,80.57-142.55,86.4-57.53,5.83-112.69-43.5-156.02-74.9-29.36-21.28-67-53.34-105.53-55.7-38.76-2.37-63.72,38.21-100.86,44.04-44.53,6.99-92.63-2.54-136.41-9.59-46.65-7.51-93.09-17.28-140.39-19.33v-12c47.67,2.03,94.51,12.14,141.52,19.69,44.13,7.09,93.44,17.13,138.31,9.19,37.08-6.56,61.24-49.2,100.81-45.58,39.38,3.6,78.02,37.95,107.87,60.09,43.79,32.47,102,85.58,161,78.84,56.53-6.45,94.07-58.85,135.18-92.23,18.82-15.28,39.96-29.1,64.95-30.05,36.69-1.4,75.43,12.89,110.14,23.42,46.38,14.07,92.13,30.23,138.75,43.54,26.39,7.54,69.29,24.1,97.09,11.97,18.44-8.05,23.68-26.34,31.57-43.2,10.61-22.69,23.09-32.96,48.57-35.68v12Z"/>
      <path class="cls-1" d="M1275.75,452.02c-25.03,3.68-38.31,15.03-52.14,35.37-10.43,15.33-19.35,31.5-38.7,36-28.45,6.61-69.34-11.41-95.72-18.94-44.37-12.65-88.52-26.15-133.31-37.26-34.18-8.48-71.71-19.11-107.18-16.3-26.03,2.06-49.85,15.19-71.63,28.61-48.39,29.81-94.72,72.34-153.85,77.29-56.08,4.7-108.04-39.14-151.7-68.82-28.81-19.58-65.75-48.31-102.95-48.17-37.39.15-62.41,37.54-99.68,42.11-89.21,10.95-180.06-25.52-268.89-29.89v-12c90.21,4.07,183.55,42.18,274.05,29.19,37.17-5.33,62.36-44.61,100.55-43.19,37.99,1.42,75.21,32.08,104.31,52.71,43.31,30.71,96.93,77.72,153.73,72.4,58.14-5.45,101.38-51.53,147.22-82.66,20.73-14.08,43.68-27.49,69.31-29.03,36.08-2.18,74.27,10.06,108.77,19.44,45.57,12.39,90.47,27.04,135.84,40.12,26.14,7.53,68.29,25.46,96.38,16.47,18.92-6.06,26.22-23.33,35.43-39.31,12.33-21.39,25.02-32.6,50.17-36.13v12Z"/>
      <path class="cls-1" d="M1275.75,472.02c-25.13,3.47-39.98,14.69-56.81,32.74-13.09,14.04-25.21,27.7-45.47,29.22-29.18,2.18-66.9-15.26-94.31-22.76-42.36-11.59-84.9-22.87-127.99-31.47-33.36-6.66-69.41-14.22-103.5-10.06-26.69,3.26-51.59,15.75-75.02,28.21-52.16,27.72-103.15,64.75-163.92,68.97-55.78,3.87-106.39-35.42-151.54-63.39-28.65-17.74-65.89-43.67-101.93-40.58-36.26,3.11-59.77,37.4-97.49,40.68-86.12,7.5-172.18-26.53-257.77-31.57v-12c87.66,4.62,176.68,40.08,264.8,30.51,37.4-4.06,61.99-40.21,98.89-41.5,36.71-1.28,73.67,26.28,102.36,45.12,44.14,29,95.36,70.91,151.19,66.57,59.79-4.65,108.06-44.91,158.02-73.87,22.46-13.02,46.76-25.9,73.06-28.4,34.97-3.33,71.96,6.14,105.86,13.93,44.17,10.15,87.72,22.81,131.33,35.09,26.71,7.52,66.47,25.39,95.2,20.51,19.69-3.35,29.83-18.61,41.23-33.46,14.97-19.5,28.79-30.84,53.81-34.5v12Z"/>
      <path class="cls-1" d="M1275.75,492.02c-25.65,2.88-42.78,13.74-62.87,28.9-16.44,12.41-32.14,22.99-53.54,21.29-29.89-2.38-63.53-18.9-92.57-26.31-40.05-10.23-80.62-18.99-121.57-24.74-32.31-4.53-66.37-8.6-98.76-2.92-27.25,4.78-52.92,16.58-77.81,28.18-55.37,25.81-110.45,57.89-172.78,61.42-56.4,3.19-107.1-32.42-154.58-58.64-28.96-16-67.2-39.51-102.39-33.18-11.7,2.11-21.62,8.76-31.51,14.94-21.42,13.36-37.46,23.17-63.45,24.49-81.96,4.16-162.54-27.72-243.92-33.43v-12c84.01,5.32,167.96,38.46,252.53,32.32,38.02-2.76,60.59-35.78,96.48-40.18,35.66-4.37,73.23,20.56,101.94,37.58,46,27.27,96.49,64.99,152.43,61.4,61.41-3.94,114.1-38.92,167.61-65.85,24.04-12.1,49.27-24.31,76.21-28.15,33.44-4.77,68.75,1.45,101.71,7.29,42.28,7.49,84.07,17.79,125.53,28.87,28,7.48,64.17,24.55,93.65,24.21,20.69-.24,34.2-12.72,48.57-26.15,18.13-16.96,33.81-28.05,59.09-31.32v12Z"/>
      <path class="cls-1" d="M1275.75,512.02c-46.11,3.61-85.41,47.79-132.43,37.11-14.09-3.2-26.88-10.85-40.42-15.7-16.32-5.84-33.3-10.1-50.16-14.01-37.54-8.71-75.92-14.77-114.36-17.48-63.58-4.48-115,9.05-173.28,33.26-58.04,24.11-116.69,51.81-180.45,54.63-57.7,2.56-109.57-30.18-159.87-54.64-29.84-14.51-69.49-35.85-104.24-26.22-11.13,3.09-20.5,10.26-30.1,16.39-20.96,13.39-37.22,21.27-62.67,21.64-76.89,1.12-151.43-28.8-227.78-34.98v-12c79.45,5.93,157.67,37.01,237.71,34.12,25.8-.93,41.9-9.95,63.13-23.36,9.74-6.15,19.43-13.03,30.88-15.55,34.95-7.66,73.73,14.96,102.97,30.33,48.56,25.52,99.62,59.88,156.48,56.95,62.93-3.25,119.49-33.51,175.99-58.61,25.4-11.29,51.35-22.83,78.76-28.28,31.66-6.29,64.78-3.72,96.63-.1,39.98,4.55,79.7,12.24,118.76,21.87,29.79,7.35,61.64,23.55,91.8,27.68,21.94,3.01,39.13-6.25,57.05-17.91,21.38-13.91,39.61-24.57,65.59-27.15v12Z"/>
      <path class="cls-1" d="M1275.75,532.02c-50.5,2.26-98.57,41.44-149.52,23.8-14.54-5.04-27.12-14.15-41.36-19.88-15.09-6.07-31.2-9.94-47.09-13.21-34.97-7.19-71.01-10.48-106.69-10.13-125.01,1.23-230.82,86.28-355.88,90.35-59.38,1.93-113.19-28.72-166.44-51.42-31.39-13.39-72.5-32.59-107.39-19.95-33.86,12.27-51.87,36.95-91.57,36.15-71.06-1.43-139.14-29.42-209.8-35.71v-12c74.14,6.28,146.14,35.43,220.78,35.4,25.16,0,41.6-7.18,62.4-20.46,9.56-6.1,18.77-13.45,29.73-16.89,34.72-10.9,74.97,9.6,105.35,23.61,51.48,23.75,104.06,55.57,162.4,53.26,64.28-2.54,124.22-28.63,183.19-52.13,57.37-22.87,109.21-39.09,171.65-36.62,37.37,1.48,74.82,6.43,111.33,14.53,16.48,3.65,33.12,7.75,48.95,13.68,13.82,5.19,26.51,13.44,40.79,17.38,48.6,13.39,91.45-28.68,139.18-31.76v12Z"/>
      <path class="cls-1" d="M1275.75,552.02c-56.1,1.01-111.59,35.48-166.87,11.29-15-6.56-27.45-17.27-42.32-23.98-13.88-6.26-29.01-9.89-43.94-12.56-32.45-5.81-66.12-6.35-98.86-3.08-57.6,5.74-109.74,31.54-163.89,50.29-61.87,21.43-126.28,41.95-192.25,43.35-61.14,1.29-117.31-27.99-173.36-49.04-33.65-12.64-75.92-29.52-111.76-14.62-33.36,13.87-52.45,35.5-92.05,33.47-64.66-3.32-125.95-29.21-190.45-35.12v-12c68.25,6.21,133.64,33.39,202.2,35.66,39.71,1.32,57.92-22.13,91.52-35.19,35.16-13.66,76.79,4.65,109,17.69,54.41,22.03,109.14,52.05,169.22,50.37,125.46-3.51,232.27-86.04,356.2-91.59,34.52-1.54,69.61.63,103.56,7.25,15.5,3.02,31.23,6.77,45.83,12.92,14.51,6.1,27.02,15.86,41.75,21.53,52.68,20.31,103.8-16.91,156.47-18.64v12Z"/>
      <path class="cls-1" d="M1275.75,572.02c-61.89.21-124.17,30.85-183.69.66-30.67-15.56-48.76-34.69-84.08-40.2-30.1-4.69-61.43-2.62-91.19,3.23-55.19,10.85-104.98,41.21-158.4,58.53-63.05,20.44-129.74,38.15-196.4,38.83-62.68.64-121.28-27.99-179.65-47.54-36.58-12.24-79.5-26.41-117.27-10.49-33.57,14.16-55.59,32.64-94.87,29.67-57.85-4.39-112.19-27.75-170.18-32.69v-12c61.93,5.6,120.46,30.55,182.43,34.4,39.48,2.45,59.53-17.96,92.86-32.1,36.49-15.48,79.08.37,113.83,12.81,57.05,20.42,114.2,49.36,176,48.33,66.29-1.11,131.65-20.45,194.05-41.45,53.7-18.07,105.19-45.86,161.73-53.65,31.55-4.35,64.27-4.88,95.76.44,14.57,2.46,29.28,6.06,42.69,12.4,15.08,7.13,27.51,18.48,42.69,25.58,57.01,26.67,115.28-6.15,173.71-6.75v12Z"/>
      <path class="cls-1" d="M1275.75,592.02c-67.27.36-135.73,28.31-199.17-7.05-29.78-16.6-46.71-39.15-82.02-44.18-27.99-3.99-57.12.45-84,8.4-25.17,7.44-47.17,19.28-69.74,32.35-25.89,14.98-54.58,24.91-83.05,33.69-63.74,19.67-132.39,35.08-199.41,35.05-63.71-.02-124.39-28.7-184.37-46.96-39.87-12.14-83.26-23.23-123.82-7.79-34.83,13.25-61.51,27.91-100.71,24.41-50.82-4.54-98.19-24.56-149.45-27.93v-12c55.32,4.39,106.87,26.55,161.92,31.1,39.21,3.24,62.86-13.85,96.81-27.76,38.82-15.9,81.87-2.96,119.77,9.22,59.12,19,118.61,47.57,181.78,47.19,66.85-.4,134.36-17.13,197.74-37.23,53.49-16.97,101.71-48.77,156.16-61.64,28.59-6.76,59.02-9.82,88.24-5.46,35.41,5.28,52.87,25.66,83.24,41.74,61.14,32.37,125.97,2.96,190.09,2.84v12Z"/>
      <path class="cls-1" d="M1275.75,612.02c-71.72,2.06-145.65,28.64-212.5-10.77-28.77-16.97-45.47-43.28-80.16-48.6-26.05-3.99-53.45,2.62-77.6,12.01-23.56,9.16-44.19,22.39-64.98,36.53-25,17.01-53.59,27.29-82.4,35.9-63.62,19.03-134.54,33.33-201.29,32.02-107.15-2.11-209.42-86.56-317.89-54.15-37.53,11.22-70.08,20.89-110.24,17.38-43.76-3.83-84.34-19.06-128.7-20.32v-12c48.52,2.58,93.13,20.88,141.13,25.25,39.43,3.59,68.31-9.31,104.04-21.83,41.93-14.69,85.41-5.01,126.71,7.18,60.35,17.81,121.71,46.71,185.6,47,67.06.3,136.42-14.32,200.3-33.75,28.59-8.69,57.32-18.73,82.86-34.53,21.85-13.53,43.21-26.02,67.73-34.22,25.8-8.62,54.1-13.91,81.33-10.06,35.11,4.97,51.92,29.1,81.25,45.89,64.88,37.13,135.61,9.9,204.8,9.08v12Z"/>
      <path class="cls-1" d="M1275.75,632.02c-74.08,1.27-150.46,23.37-219.59-14.72-28.1-15.48-46.15-40.32-79.29-44.97-24.81-3.48-50.87,2.66-73.84,11.64-22.79,8.91-41.57,22.39-61.9,35.58-25.01,16.23-54.42,26.11-82.67,34.95-63.11,19.73-132.44,35.5-198.95,34.27-111.46-2.07-211.85-84.01-326-57.95-40.34,9.21-76.3,15.17-118.24,13.53-39.18-1.53-75.58-13.61-115.26-12.34v-12c41.96.18,80.36,13.61,121.74,16.57,40.88,2.93,75.41-4.78,114.26-14.86,111.46-28.9,211.65,52.75,320.96,55.32,66.66,1.57,137.63-12.96,201.14-32.03,28.72-8.63,57.56-18.83,82.44-35.95,20.42-14.04,40.31-27.55,63.43-36.91,23.44-9.49,50.17-16.29,75.62-12.44,34.12,5.16,51.24,31.77,79.65,48.31,68.02,39.6,143.49,14.23,216.5,11.98v12Z"/>
      <path class="cls-1" d="M1275.75,652.02c-73.96.15-149.79,17.05-219.01-18.17-27.88-14.18-47.16-35.88-79.14-40.44-24.27-3.46-49.81.92-72.86,8.53-22.62,7.47-40.91,19.85-61.23,31.7-25.23,14.71-54.13,24.62-81.57,34.19-60.68,21.17-127.42,41.14-192.32,39.85-114.34-2.27-219.71-90.07-336.71-61.64-16.89,4.1-33.09,10.46-50.31,13.23-23.27,3.75-48.34,2.04-71.9,1.88-37.67-.26-72.53-11.93-110.69-9.14v-12c38.76-2,74.29,9.65,112.56,10.52,23.37.53,48.21,1.79,71.33-1.73,16.66-2.53,32.49-8.21,48.88-11.9,115.42-26.05,217.32,57.3,329.97,59.52,65.99,1.3,134.4-16,196.71-36.25,27.93-9.07,57.34-18.89,82.43-34.52,20.29-12.64,38.7-25.83,61.37-34.26,22.9-8.51,48.65-14.04,73.17-10.64,32.62,4.51,51.2,28.1,79.17,43.01,69.41,36.99,145.86,17.01,220.16,16.26v12Z"/>
      <path class="cls-1" d="M1275.75,672.02c-71.9-.5-145.05,11.52-212.55-20.46-27.83-13.19-48.39-31.81-79.46-36.95-24.35-4.03-50.02-2.01-73.93,3.63-49.05,11.58-94.86,41.59-141.52,60.45-56.99,23.04-120.24,48.29-182.74,47.26-116.33-1.91-231.53-102.16-349.57-64.57-17.15,5.46-33.24,13.7-50.93,17.52-23.13,4.99-48.82,3.15-72.45,3.07-38.45-.13-73.6-13.37-112.6-9.96v-12c38.24-3.14,73.02,8.95,110.76,9.04,23.62.05,48.9,1.9,72.18-2.23,17.47-3.1,33.74-10.11,50.81-14.66,117.73-31.4,226.33,60.7,341.64,62.89,64.02,1.22,129.46-20.75,188.8-42.63,27.08-9.99,55.39-20.1,80.7-34.16,20.4-11.33,38.87-22.94,61.53-29.64,23.31-6.9,48.84-10.38,73.07-6.76,31.6,4.73,51.37,25.17,79.22,38.93,68.73,33.97,143.71,19.05,217.05,19.21v12Z"/>
      <path class="cls-1" d="M1275.75,692.02c-68.4-.81-137.27,6.62-201.69-21.85-27.77-12.27-49.96-28.12-80.16-34.21-25.01-5.04-51.29-5.71-76.56-2.56-109.86,13.67-197.89,111.37-311.78,110.39-72.87-.63-146.5-38.73-215.21-59.43-46.88-14.12-101.45-28.34-148.53-7.4-16.86,7.5-32.01,18.29-49.76,23.82-22.56,7.03-49.05,5.69-72.55,5.14-40.97-.94-77.83-17.15-119.5-13.89v-12c39.88-3.44,75.56,10.85,114.84,11.21,23.58.22,49.59,1.91,72.54-3.81,17.76-4.43,33.56-13.63,50.65-19.84,47.21-17.15,100.47-4.79,146.84,8.99,66.95,19.9,137.42,55.57,208.28,56.55,61.4.86,123.03-26.75,178.28-50.62,45.69-19.74,91.9-48.62,141.14-58.1,24.41-4.7,50.28-5.67,74.82-1.28,30.73,5.49,51.89,22.96,79.7,35.78,66.41,30.61,138.01,20.45,208.65,21.11v12Z"/>
      <path class="cls-1" d="M1275.75,712.02c-63.97-.88-127.46,2.17-187.92-22.6-27.64-11.33-51.84-24.85-81.13-31.91-26.18-6.31-53.33-9.77-80.27-9.55-53.02.44-95.21,22.05-140.3,48.02-47.42,27.32-101.32,65.12-158.25,65.39-34.03.16-69.56-12.59-101.47-22.78-42.2-13.46-83.8-28.78-126.15-41.81-47.79-14.71-104.68-32.49-150.77-3.97-16.14,9.99-29.74,23.67-47.27,31.45-21.82,9.69-48.8,9.08-72.31,7.78-44.69-2.47-84.32-22.47-129.92-20.02v-12c43.13-3.01,80.99,14.65,123.33,16.13,23.47.82,50.22,1.88,72.49-6.15,17.69-6.38,32.28-18.3,48.89-26.75,46.8-23.81,102.28-8.23,149.51,6.13,40.82,12.41,80.91,27.08,121.6,39.92,31.33,9.88,65.21,21.41,98.48,21.53,111.98.42,196.24-102.93,306.53-111.57,25.93-2.03,52.51-.2,77.94,5.29,29.84,6.45,52.81,21.35,80.52,33.25,62.91,27.01,129.73,21.36,196.45,22.22v12Z"/>
      <path class="cls-1" d="M1275.75,732.02c-59.11-.82-116.64-2-172.7-22.98-54.78-20.5-107.96-40.69-166.82-46.58-56.07-5.61-94.6,9.71-140.3,41.42-41.88,29.06-90.95,74.58-145.12,75-35.48.27-73.4-14.13-106.53-24.88-44.76-14.52-88.9-30.9-133.8-44.99-48.83-15.32-108.27-36.97-152.36.03-15.15,12.72-26.83,29.34-43.94,39.74-21.11,12.82-47.9,12.84-71.83,10.67-49.07-4.46-92.13-28.56-142.36-27.43v-12c47.4-1.97,88.34,19.66,134.74,22.88,23.63,1.64,50.61,1.97,72.14-8.92,17.38-8.79,30.24-23.66,46.01-34.72,45.41-31.86,103.3-12.54,151.48,2.41,43.37,13.45,85.99,29.2,129.22,43.08,32.49,10.44,68.82,23.7,103.5,23.62,55.68-.14,107.9-41.26,152.98-69.24,45.34-28.14,85.96-47.4,140.25-45.39,59.35,2.2,109.34,22.04,163.51,43.5,58.72,23.26,119.87,21.92,181.92,22.79v12Z"/>
      <path class="cls-1" d="M1275.75,752.03c-54.31-.73-105.78-6.04-157.53-23.24-56.73-18.86-113.54-39.92-172.39-51.33-24.61-4.77-52.97-9.77-77.72-3.72-23.85,5.83-44.56,23.26-62.97,38.55-36.89,30.64-80.37,83.32-132.58,84.24-36.66.65-77.22-15.64-111.29-26.85-47.21-15.53-93.79-32.94-141.15-48.04-50.08-15.96-112.07-41.33-153.34,4.13-14.03,15.45-23.71,34.85-40.27,48-20.39,16.2-46.46,16.54-71.18,13.48-53.6-6.63-100.33-34.78-155.34-35.22v-12c52.15-.52,96.67,25.23,147.57,30.55,24.21,2.53,50.75,2.35,71.58-11.82,16.91-11.5,27.78-29.26,42.49-43.08,43.04-40.45,103.51-17.26,152.82-1.69,45.91,14.5,91.04,31.3,136.8,46.23,33.52,10.94,72.52,26.11,108.49,25.69,53.29-.62,100.16-49.05,139.98-78.77,19.76-14.75,41.15-31.24,65.32-37.96,23.96-6.66,50.77-4.2,75.09-.81,58.73,8.19,113.64,28.7,169.06,48.57,54.31,19.47,109.39,22.3,166.55,23.08v12Z"/>
      <path class="cls-1" d="M1275.75,772.03c-112.56-1.55-214.54-49.43-321.41-78.57-25.11-6.85-55.67-15.75-81.73-10.7-23.64,4.58-43.13,22.95-59.69,39.15-32.66,31.96-70.44,91.2-121.51,92.57-37.62,1.01-80.5-16.94-115.3-28.52-49.41-16.44-98.19-34.78-147.75-50.78-51.44-16.6-115.7-45.1-153.79,7.83-12.93,17.96-20.78,39.79-36.73,55.57-19.51,19.31-44.88,19.84-70.48,15.9-57.74-8.91-107.98-40.51-167.36-42.46v-12c56.82,1.07,105.03,30.56,160.34,38.23,25.05,3.47,50.88,2.96,70.9-14.51,16.32-14.24,25.24-34.65,38.81-51.15,40.01-48.62,102.96-21.91,153.58-5.68,48.28,15.47,95.77,33.27,143.91,49.18,34.38,11.37,75.93,28.36,113.01,27.57,51.64-1.11,92.84-56.52,127.92-87.71,17.6-15.65,37.83-33.57,61.54-38.86,25.27-5.64,54.59.98,79.39,6.62,59.11,13.44,116.72,34.85,174.53,52.95,50.15,15.71,99.29,22.66,151.81,23.37v12Z"/>
      <path class="cls-1" d="M1275.75,792.03c-46.87-.76-88.07-14.46-133.25-24.46-29.16-6.46-57.29-11.2-85.67-21.11-32.19-11.24-63.61-24.6-95.94-35.44-25.68-8.61-57.51-20.53-84.91-16.53-23.91,3.48-42.23,21.83-57.57,39.03-29.55,33.14-61.88,97.81-112.82,99.43-38.36,1.22-82.75-17.82-118.12-29.69-51.22-17.19-101.78-36.28-153.15-53.02-52.54-17.12-118.62-47.89-153.76,10.67-12.01,20.02-18.39,43.81-33.81,61.76-18.67,21.74-43.48,22.16-69.81,17.6-61.05-10.57-114.06-45.19-176.95-48.24v-12c60.92,2.46,112.38,35.35,171.57,45,25.93,4.22,51.03,3.71,70.2-16.68,15.72-16.72,22.93-39.4,35.46-58.25,36.85-55.45,101.9-25.93,153.83-9.1,50.34,16.32,99.89,34.98,150.08,51.75,35.05,11.71,78.65,30.17,116.6,29.06,50.89-1.5,86.44-63.08,117.7-95.52,15.98-16.59,34.98-35.07,58.67-39.21,26.6-4.64,57.8,5.61,83.13,13.2,104.19,31.22,207.93,78.17,318.51,79.77v12Z"/>
      <path class="cls-1" d="M1275.75,812.03c-45.12-1-83.33-19.15-127.1-25.95-30.09-4.67-57.21-6.35-86.46-16.51-33.1-11.5-64.9-26.4-97.62-38.9-26.31-10.05-58.12-23.49-86.78-20.76-24.67,2.35-42.15,19.57-57.06,37.91-27.94,34.39-55.45,102.72-107.37,104.28-38.85,1.17-83.5-18.1-119.31-30.18-52.47-17.7-104.27-37.33-156.89-54.57-32.77-10.74-72.82-28.28-107.91-24.44-22.43,2.45-35.3,17.76-45.39,36.6-11.45,21.38-16.83,46.54-31.98,65.91-17.98,22.98-42.72,23.1-69.27,18.28-63.01-11.44-117.62-48.28-182.61-51.66v-12c63.93,3.3,117.75,38.92,179.77,49.94,26.5,4.71,51.22,4.39,69.58-18.01,15.27-18.63,21.18-43.04,32.92-63.7,34.15-60.11,100.82-28.71,153.63-11.45,51.94,16.97,103.08,36.31,154.87,53.73,35.57,11.96,80.24,31.22,118.82,29.98,51.18-1.64,81.49-68.02,110.2-101.64,15.06-17.64,32.99-35.67,57.15-38.72,27.92-3.52,59.91,9.22,85.84,18.44,32.56,11.59,64.19,25.63,96.81,37.06,28.69,10.05,56.49,13.64,86.02,19.41,44.42,8.69,84.2,24.13,130.17,24.96v12Z"/>
      <path class="cls-1" d="M1275.75,832.03c-43.98-2.28-82.71-19.7-125.79-25.26-30.34-3.91-57.13-4.17-86.66-14.29-33.57-11.51-65.57-27.13-98.48-40.32-26.52-10.63-57.92-24.34-87.04-22.01-24.97,2-42.46,18.38-57.49,37.09-27.75,34.54-53.92,103.26-106.15,104.77-38.79,1.12-83.51-18.18-119.29-30.2-52.41-17.6-104.16-37.11-156.72-54.27-32.65-10.66-72.91-28.4-107.87-24.45-22.29,2.52-35.18,17.97-45.29,36.64-11.53,21.29-17.12,46.32-32.28,65.61-18,22.92-42.26,23.18-68.82,18.31-63.29-11.6-118.69-47.93-183.88-51.63v-12c65.33,3.21,120.14,40.66,183.45,52.16,26.44,4.8,51.33,4.86,69.12-18.19,15.16-19.64,20.31-45.16,31.67-66.84,9.99-19.05,22.66-34.37,45.26-36.71,35.19-3.65,74.93,13.66,107.77,24.44,52.94,17.37,105.04,37.14,157.82,54.96,35.93,12.13,80.26,31.21,119.23,30.15,52.66-1.43,78.49-70.57,106.3-105.53,15-18.86,32.3-35.27,57.4-37.13,29.1-2.16,60.5,11.37,87.06,21.9,32.69,12.96,64.49,28.29,97.79,39.7,29.67,10.16,56.24,10.41,86.68,14.3,43.68,5.59,81.29,25.63,126.22,26.79v12Z"/>
      <path class="cls-1" d="M1275.75,852.03c-41.88-2.99-82.31-12.78-123.93-17.2-30.49-3.24-57.56-4.4-86.99-14.69-34.35-12.01-67.05-28.25-100.69-42-26.69-10.9-58.41-25.1-87.84-22.6-24.46,2.09-42.29,17.96-57.45,36.01-28.08,33.43-54.84,98.89-105.96,100.43-38.22,1.15-82.67-17.77-118-29.41-51.13-16.85-101.64-35.52-152.91-51.94-53.24-17.05-117.35-47.18-152.94,11.24-12.14,19.92-18.92,43.47-34.29,61.4-18.82,21.95-42.48,22.4-69.05,17.7-63.56-11.26-120.53-44.82-185.7-48.95v-12c65.14,3.96,121.1,39.24,184.44,50.79,26.6,4.85,50.53,4.45,68.8-18.2,15.21-18.84,21.23-43.35,32.96-64.18,10.32-18.32,23.46-33.63,45.5-36.21,34.75-4.08,75.15,13.74,107.65,24.28,52.12,16.91,103.45,36.12,155.42,53.47,35.62,11.89,80.39,31.17,118.99,30.01,51.79-1.55,78.27-69.29,106.09-103.41,15.06-18.48,32.7-34.77,57.48-36.84,29.19-2.45,60.69,11.44,87.24,22.15,33.16,13.38,65.4,29.22,99.23,40.89,29.45,10.16,56.39,10.71,86.73,14.5,42.52,5.3,82.06,20,125.21,22.75v12Z"/>
      <path class="cls-1" d="M1275.75,872.03c-40.29-2.49-80.58-2.07-120.88-3.96-30.96-1.45-58.29-4.14-87.79-14.76-35.44-12.76-69.15-29.86-103.86-44.39-54.06-22.64-103.24-38.74-146.89,9.7-28.89,32.06-55.7,91.95-105.65,93.34-37.4,1.04-80.37-16.55-115.13-27.66-49.31-15.76-98.05-33.29-147.5-48.64-52.56-16.31-113.69-43.55-152.14,9.43-13.02,17.94-21.37,39.47-37.18,55.37-19.99,20.12-43.71,20.34-70.05,16.11-64.21-10.32-123.19-40.61-188.7-44.55v-12c65.27,4.12,123,36.42,186.78,47.37,26.49,4.55,50.11,4.16,69.37-17.16,15.52-17.19,22.89-39.99,35.36-59.18,36.69-56.51,99.65-27.41,152.69-10.61,50.6,16.03,100.46,34.28,150.91,50.72,35.12,11.45,79.1,29.93,117.01,28.81,50.66-1.5,77.5-64.96,105.85-97.88,42.79-49.68,91.33-34.62,145.84-12.14,34.04,14.04,67.11,30.6,101.86,42.88,29.46,10.41,56.6,12.1,87.26,14.75,41.03,3.54,81.72,9.54,122.83,12.44v12Z"/>
      <path class="cls-1" d="M1275.75,892.03c-40.51-1.25-77.08,11.36-116.96,13.03-71.57,2.99-132.91-34.46-196.63-61.9-53.1-22.87-103.76-41.25-149.1,4.5-30.08,30.36-56.56,83.15-105.25,84.28-36.37.84-77.06-14.77-111.11-25.21-47.12-14.44-93.69-30.6-140.94-44.64-51.52-15.31-109.41-38.7-150.92,6.99-14.09,15.51-24.32,34.58-40.69,48.04-21.35,17.55-45.59,17.39-71.63,13.82-65.17-8.95-126.39-35.61-192.54-38.91v-12c65.74,3.73,125.58,32.6,190.15,42.41,26.22,3.98,50.1,3.91,70.63-15.26,16.02-14.96,25.09-35.55,38.52-52.57,39.67-50.26,99.53-24.45,151.69-8.52,48.6,14.85,96.51,31.85,144.99,47.11,34.49,10.86,76.62,27.72,113.63,26.75,49.46-1.3,76.17-58.49,105.5-89.92,44.29-47.46,94.01-30.5,147.71-7.76,64.27,27.22,122.3,59.19,193.54,60.22,39.98.58,79.3-4.53,119.39-2.47v12Z"/>
      <path class="cls-1" d="M1275.75,912.03c-22.96.32-42.74,3.79-63.35,13.91-16.18,7.94-31.13,15.68-49.17,18.41-70.61,10.68-140.57-37.5-202.25-64.83-52.09-23.08-104.42-43.95-151.69-1.62-31.53,28.24-57.46,73.18-104.8,74-35.17.61-73.18-12.69-106.39-22.33-44.68-12.97-88.86-27.62-133.66-40.2-50.46-14.17-105.09-33.05-149.43,4.17-15.28,12.83-27.6,29.08-44.58,39.89-22.71,14.46-47.76,13.94-73.55,11.1-66.35-7.32-129.87-30.13-196.91-32.5v-12c66.48,2.95,128.62,28.09,194.24,36.41,25.92,3.29,50.46,3.6,72.36-12.77,16.61-12.4,27.65-30.38,42.21-44.85,42.69-42.41,99.25-20.76,150.34-5.9,46.28,13.47,91.92,29.04,138.09,42.9,33.73,10.13,73.38,24.85,109.28,24.09,48.17-1.01,74.43-50.71,105.08-80.28,46.09-44.47,97.41-25.09,150.1-2.13,63.06,27.47,127.4,69.02,198.82,63.06,40.08-3.35,73.91-21.13,115.22-20.55v12Z"/>
      <path class="cls-1" d="M1275.75,932.03c-24.29,1.57-42.42,7.89-61.2,23.23-14.79,12.08-27.79,24.1-46.67,29.23-31.06,8.44-62.98-2.48-91.68-13.92-39.74-15.84-77.52-36.2-116.42-53.9-51.25-23.31-105.07-46.38-154.42-8.07-33.36,25.89-58.27,62.11-104.33,63.27-33.61.84-69.44-10.61-101.4-19.29-42.16-11.45-83.86-24.53-126.12-35.6-49.53-12.97-101.33-27.14-147.84,1.2-16.5,10.05-30.98,23.24-48.62,31.44-23.94,11.14-49.89,10.34-75.6,8.21-67.63-5.59-133.38-24.46-201.47-25.81v-12c67.44,1.97,131.87,23.2,198.73,29.83,25.73,2.55,51.14,3.19,74.36-9.95,17.24-9.75,30.43-24.8,46.19-36.52,45.31-33.67,98.73-16.68,148.8-2.99,43.78,11.98,86.98,26,130.65,38.37,32.84,9.3,69.75,21.64,104.4,21.12,46.76-.71,72.47-42.46,104.61-69.72,48.08-40.78,101.05-18.97,152.77,4.19,60.55,27.11,134.88,79.87,204.58,66.02,18.34-3.65,32.51-13.08,48.17-22.73,19.94-12.28,39.06-16.83,62.49-17.62v12Z"/>
      <path class="cls-1" d="M1275.75,952.03c-25.97,2.94-42.44,12.57-59.11,32.25-13.24,15.63-24.45,32.03-44.24,39.78-30.4,11.91-64.91-2.05-93.04-13.59-41.22-16.91-80.4-38.39-120.75-57.18-50.79-23.64-105.56-48.21-157.05-14.3-34.49,22.71-59.57,52.24-103.87,52.83-72.12.97-146.06-30.75-215.35-47.47-48.72-11.76-98.53-21.57-146.32-1.67-17.7,7.37-34.21,17.38-52.57,23.2-25,7.92-51.69,6.91-77.56,5.44-68.92-3.92-136.7-18.93-205.9-19.31v-12c68.52.94,135.12,18.25,203.27,23.16,25.74,1.85,52.02,2.75,76.4-7.07,17.92-7.22,33.24-19.13,50.22-28.09,47.14-24.86,98.03-12.52,147.22-.03,41.25,10.47,81.97,22.93,123.12,33.78,31.64,8.34,66.31,18.75,99.44,18.09,45.37-.91,70.3-34.36,104.14-59.01,50.2-36.57,104.48-12.8,155.49,10.62,39.49,18.14,77.84,38.96,118.18,55.23,28.47,11.49,61.41,23.66,92.23,13.77,19.25-6.17,31.51-19.94,45.68-33.53,17.95-17.21,35.41-24.8,60.34-26.92v12Z"/>
      <path class="cls-1" d="M1275.75,972.03c-56.96,8.56-54.14,67.14-99.3,89.6-29.65,14.75-66.63-1.79-94.22-13.38-42.57-17.88-83.04-40.39-124.71-60.17-50.83-24.13-105.76-49.23-159.36-19.73-35.23,19.39-60.97,43.26-103.46,43.47-117.65.59-230.84-76.16-349.44-45-18.81,4.94-37.04,11.89-56.17,15.66-25.89,5.09-52.98,3.97-79.22,3.04-70.12-2.49-139.61-13.83-209.87-13.47v-12c69.63.04,138.14,13.56,207.56,16.87,26,1.24,52.9,2.31,78.27-4.42,18.66-4.95,35.9-13.71,54.06-20.07,48.06-16.83,97.33-8.55,145.77,2.74,68.22,15.89,139.96,45.36,210.78,44.68,43.58-.42,68.85-27.53,103.7-48.92,52.34-32.12,107.28-7.22,158.03,16.6,40.9,19.2,80.62,41.11,122.39,58.42,27.91,11.57,63.44,26.62,93.54,13.48,20.13-8.79,30.66-26.91,43.32-43.77,15.86-21.12,31.67-32.15,58.34-35.62v12Z"/>
      <path class="cls-1" d="M1275.75,992.03c-60.43,10.04-50.18,77.35-96.05,103.7-28.98,16.65-68.01-1.81-95.1-13.4-43.7-18.69-85.25-42.07-128.03-62.69-51.38-24.75-105.55-49.32-161.1-23.79-35.44,16.29-62.43,35.9-103.13,35.93-115.65.09-222.26-58.95-339.73-41.58-47.22,6.98-91.6,11.59-139.56,10.62-71.1-1.44-141.9-9.47-213.06-8.79v-12c70.65-.55,140.72,9.42,211.26,11.43,48.42,1.38,90.29-5.24,137.21-15.2,118.48-25.13,228.19,43.85,345.2,43.53,41.76-.11,67.94-22.1,103.31-40.19,54.41-27.83,109.14-2.81,160.13,21.55,42.15,20.14,83.08,43.02,126.13,61.25,27.39,11.6,65.25,29,94.62,13.36,45.47-24.21,39.46-86.4,97.88-95.73v12Z"/>
      <path class="cls-1" d="M1275.75,1012.03c-63.29,9.61-47.43,84.57-93.92,112.91-28.45,17.35-69.01-2.25-95.53-13.72-44.54-19.26-86.86-43.3-130.46-64.52-52.32-25.47-104.84-48.47-162.04-25.91-35.17,13.87-63.8,30.91-102.91,30.98-63.98.12-127.35-20.23-189.79-31.88-47.91-8.94-95.25-10.79-143.79-7.3-119.48,8.58-237.73-1.23-357.31-.56v-12c71.45-.65,142.64,6.17,214.05,7.34,47.82.79,93.42-2.73,140.81-8.08,48.4-5.46,96.16-2.57,143.92,6.73,63.45,12.35,127.74,33.79,192.87,33.76,40.03-.02,67.64-18.39,103.03-33.6,56.25-24.19,109.87-.13,161.58,24.9,43.15,20.89,85.05,44.56,129.13,63.51,26.88,11.56,66.59,30.58,95.33,13.49,46.11-27.41,33.41-97.91,95.04-108.05v12Z"/>
      <path class="cls-1" d="M1275.75,1032.03c-64.48,8.05-46.8,87.12-93.65,115.46-28.15,17.03-69.43-2.91-95.49-14.21-44.75-19.4-87.26-43.62-131.05-64.99-53.18-25.96-103.98-47.35-162.11-25.98-34.81,12.79-64.81,29.21-103.01,29.49-63.05.46-126.18-19.63-187.77-30.82-48.32-8.77-95.16-9.69-144.03-7.5-119.82,5.37-238.81-1.46-358.64-1.45v-12c119.74-.12,238.57,7.46,358.27,1.17,48.7-2.56,95.73-1.33,143.84,7.47,61.94,11.33,125.1,31.36,188.51,31.1,38.56-.16,67.91-16.7,102.86-29.9,57.75-21.8,109.36.32,162.14,26.09,43.81,21.39,86.35,45.61,131.12,65.02,26.26,11.39,67.28,31.19,95.56,13.96,46.79-28.5,29.16-106.19,93.46-114.91v12Z"/>
      <path class="cls-1" d="M1275.75,1052.04c-62.74,8.86-50.86,84.85-97.72,112.6-28.34,16.78-68.7-2.59-95.09-13.92-43.75-18.78-85.33-42.25-128.16-62.96-53.2-25.72-103.7-46.52-161.65-25.34-35.35,12.92-66.06,29.7-104.79,30-62.57.49-124.88-19.92-185.9-31.36-48.2-9.04-95.29-10.4-144.08-7.16-48.17,3.2-95.84,6.04-144.17,5.27-71.45-1.14-142.7-7.77-214.19-7.13v-12c119.89-.59,238.71,7.72,358.6,1.51,48.83-2.53,95.82-1.41,144.08,7.44,61.44,11.27,124.3,31.45,187.24,30.97,38.35-.29,68.55-16.81,103.52-29.64,58.08-21.31,108.84.02,162.02,25.9,43.48,21.16,85.69,45.12,130.11,64.33,26.16,11.31,67.21,31.18,95.4,14.14,46.7-28.23,31.11-106.14,94.8-114.66v12Z"/>
      <path class="cls-1" d="M1275.75,1072.04c-61.71,8.62-57.37,81.04-105.31,107.25-28.77,15.73-67.28-1.95-94.18-13.28-42.24-17.78-82.38-40.17-123.73-59.84-53.27-25.34-102.86-44.32-160.48-23.45-36.32,13.16-68.37,30.65-108.08,30.96-61.56.47-122.59-20.52-182.46-32.36-48.21-9.54-95.16-11.07-143.97-6.25-48.92,4.84-96.79,9.43-146.08,8.08-70.61-1.94-140.77-11.69-211.48-11.12v-12c71.21-.68,142.09,7.14,213.24,8.53,48.67.95,96.42-2.48,144.85-6.28,48.78-3.82,95.87-2.36,144.05,6.85,60.62,11.59,122.47,32.2,184.69,31.71,39.08-.3,70.25-17.34,105.95-30.34,57.84-21.07,108.03-.87,161.26,24.72,42.29,20.33,83.35,43.4,126.55,61.82,26.58,11.33,66.29,30.15,94.78,13.7,47.18-27.23,38.13-101.85,100.38-110.72v12Z"/>
      <path class="cls-1" d="M1275.75,1092.04c-61.24,7.65-65.77,76.08-115.51,100.07-29.28,14.12-65.44-1.14-92.9-12.38-40.34-16.51-78.67-37.54-118.15-55.91-53.29-24.79-101.68-41.1-158.77-20.62-37.61,13.49-71.45,31.95-112.48,32.23-60.17.42-119.57-21.36-177.86-33.69-48.39-10.24-94.82-11.66-143.72-4.91-49.86,6.88-97.95,14.02-148.53,11.68-69.5-3.21-138.13-16.48-207.83-16.47v-12c70.33-.4,139.92,10.72,210.11,13.12,49.77,1.7,97.73-3.82,147.01-9.44,48.83-5.57,95.62-4.04,143.88,5.75,59.27,12.03,119.69,33.31,180.73,32.86,40.21-.3,72.92-18.15,109.73-31.43,57.43-20.73,106.56-2.73,159.85,22.41,40.64,19.18,80.1,41.04,121.61,58.35,27.13,11.31,64.73,28.09,93.7,12.95,48.59-25.39,47.66-96.27,109.13-104.56v12Z"/>
      <path class="cls-1" d="M1275.75,1112.04c-61.23,6.28-75.42,70.34-127.4,91.69-29.66,12.18-63.45-.29-91.38-11.31-38.18-15.06-74.45-34.57-111.83-51.45-53.2-24.03-100.35-37.21-156.72-17.19-39.09,13.88-75.04,33.48-117.62,33.72-58.55.33-116.08-22.35-172.51-35.24-48.73-11.13-94.31-12.13-143.4-3.3-50.85,9.15-99.25,19.46-151.34,15.8-68.24-4.79-134.97-21.85-203.57-22.72v-12c69.27.32,137.17,15.07,206.18,18.89,51.17,2.83,99.37-5.51,149.62-13.28,48.97-7.57,95.09-6.29,143.6,4.29,57.57,12.55,116.24,34.68,175.79,34.29,41.63-.27,76.29-19.17,114.47-32.81,56.83-20.3,104.71-5.2,157.98,19.31,38.66,17.79,76.19,38.22,115.69,54.17,27.66,11.17,62.86,25.33,92.31,11.97,50.6-22.96,58.93-89.69,120.11-96.83v12Z"/>
      <path class="cls-1" d="M1275.75,1132.04c-61.67,4.81-85.62,64.14-140.09,82.76-29.8,10.18-61.56.46-89.74-10.16-35.91-13.54-70.01-31.43-105.15-46.75-52.94-23.08-99.05-32.98-154.5-13.48-40.66,14.3-78.87,35.13-123.09,35.3-56.85.22-112.35-23.41-166.8-36.89-49.16-12.17-93.71-12.47-143.04-1.55-51.73,11.45-100.68,25.38-154.31,20.16-66.94-6.51-131.52-27.49-199.03-29.38v-12c68.16,1.28,134.05,19.89,201.77,25.36,52.72,4.26,101.3-7.46,152.52-17.53,49.19-9.67,94.36-8.93,143.26,2.61,55.65,13.12,112.37,36.18,170.25,35.9,43.23-.22,80.07-20.3,119.79-34.35,56.02-19.81,102.72-7.95,155.84,15.73,36.49,16.26,71.89,35.13,109.18,49.59,28.05,10.88,60.98,22.23,90.73,10.85,52.96-20.26,71.08-82.46,132.43-88.15v12Z"/>
      <path class="cls-1" d="M1275.75,1152.04c-62.53,3.46-95.6,57.93-152.65,73.91-62.97,17.64-130.96-27.82-186.66-51.11-52.52-21.97-97.92-28.77-152.31-9.82-42.21,14.71-82.67,36.79-128.5,36.87-55.2.1-108.65-24.46-161.15-38.53-49.59-13.29-93.14-12.7-142.68.17-52.42,13.62-102.23,31.37-157.26,24.49-65.7-8.21-127.99-33.09-194.53-35.98v-12c67.1,2.31,130.78,24.86,197.21,32.06,54.21,5.88,103.47-9.57,155.51-21.91,49.42-11.72,93.55-11.76,142.89.85,53.66,13.72,108.34,37.73,164.52,37.56,44.87-.14,83.99-21.48,125.28-35.94,55.03-19.28,100.82-10.66,153.61,11.99,55.42,23.78,128.55,74.39,191.56,54.56,55.53-17.47,83.19-74.93,145.18-79.17v12Z"/>
      <path class="cls-1" d="M1275.75,1172.04c-63.62,2.42-104.7,51.96-164.18,65.79-62.27,14.47-123.36-23.49-179.02-45.73-52-20.78-97.03-24.95-150.33-6.52-43.62,15.09-86.17,38.32-133.48,38.32-53.75-.01-105.23-25.41-155.96-40.03-49.87-14.37-92.79-12.96-142.38,1.72-52.8,15.63-103.85,36.95-159.99,28.5-64.63-9.72-124.63-38.36-190.41-42.04v-12c66.21,3.24,127.57,29.65,192.82,38.5,55.53,7.53,105.77-11.73,158.39-26.15,49.6-13.59,92.8-14.56,142.55-.82,51.77,14.3,104.41,39.2,159,39.15,46.45-.04,87.78-22.61,130.57-37.47,53.95-18.74,99.16-13.06,151.48,8.43,55.75,22.9,120.73,65.17,183.5,48.89,58.05-15.06,94.49-67.54,157.44-70.54v12Z"/>
      <path class="cls-1" d="M1275.75,1192.04c-64.69,1.87-112.22,46.81-173.78,59.03-61.06,12.13-117.37-20.12-172.52-41.15-51.52-19.65-96.4-21.91-148.74-3.91-44.8,15.4-89.08,39.59-137.62,39.52-52.61-.08-102.33-26.17-151.64-41.29-50.02-15.34-92.62-13.14-142.16,2.96-53.05,17.24-105.25,41.65-162.32,31.92-63.82-10.88-121.68-42.97-186.97-47.08v-12c65.55,3.91,124.66,33.97,188.93,44.21,56.52,9,108.09-13.61,160.98-29.95,49.57-15.32,92.35-17.04,142.28-2.26,50.12,14.83,100.86,40.53,154.11,40.57,47.84.04,91.14-23.61,135.26-38.83,52.89-18.24,97.84-14.93,149.63,5.37,55.5,21.76,114.43,57.2,176.26,43.78,60.37-13.11,104.24-60.76,168.31-62.88v12Z"/>
      <path class="cls-1" d="M1275.75,1212.04c-65.41,2.03-117.57,42.91-180.52,54.28-59.72,10.79-113.29-17.83-167.67-37.74-51.24-18.75-96-20.03-147.74-2.32-45.65,15.63-91.12,40.44-140.55,40.36-51.92-.08-100.22-26.65-148.57-42.17-50.03-16.07-92.68-13.31-142.09,3.74-53.29,18.39-106.2,44.99-164.06,34.47-63.36-11.53-119.42-46.63-184.56-50.62v-12c65.19,4.13,122.28,37.49,185.87,48.7,57.4,10.12,109.95-15.31,163.1-33.06,49.51-16.53,92.06-19.01,142.11-3.33,48.86,15.3,97.96,41.6,150.24,41.69,48.94.08,93.78-24.4,138.96-39.9,52.05-17.86,96.89-16.12,148.26,3.13,54.85,20.55,109.83,51.09,170.35,39.62,62.21-11.79,111.82-55.02,176.87-56.85v12Z"/>
      <path class="cls-1" d="M1275.75,1232.04c-65.37,3.16-120.16,40.7-183.5,52.19-58.58,10.62-111.38-16.75-165.01-35.86-51.29-18.28-95.85-19.71-147.51-2.07-46.08,15.74-92.02,40.74-141.86,40.74s-99.11-26.82-147.18-42.58c-49.87-16.35-93.02-13.63-142.19,3.9-53.59,19.1-106.47,46.48-165.01,35.86-63.33-11.49-118.14-49.02-183.5-52.19v-12c65.18,3.75,120.66,39.91,183.96,51.51,58.14,10.66,111.15-16.45,164.54-35.18,49.3-17.29,92.13-20.14,142.1-3.88,48.14,15.66,96.01,42.34,147.79,42.4,49.65.06,95.41-24.89,141.29-40.58,51.64-17.66,96.34-16.47,147.55,2.04,54.07,19.54,107.09,47.36,166.31,36.78,63.25-11.29,116.7-50.74,182.21-53.09v12Z"/>
    </g>
  </g>
</svg>